<?xml version="1.0" standalone="no"?>
<!DOCTYPE svg PUBLIC "-//W3C//DTD SVG 1.1//EN" "http://www.w3.org/Graphics/SVG/1.1/DTD/svg11.dtd" >
<svg xmlns="http://www.w3.org/2000/svg">
<metadata>Generated by IcoMoon</metadata>
<defs>
<font id="icomoon" horiz-adv-x="1024">
<font-face units-per-em="1024" ascent="960" descent="-64" />
<missing-glyph horiz-adv-x="1024" />
<glyph unicode="&#x20;" horiz-adv-x="512" d="" />
<glyph unicode="&#xe900;" glyph-name="apps" d="M387.264 480.32h-192c-52.928 0-96 43.072-96 96v192c0 52.928 43.072 96 96 96h192c52.928 0 96-43.072 96-96v-192c0-52.96-43.072-96-96-96zM195.264 800.32c-17.632 0-32-14.368-32-32v-192c0-17.632 14.368-32 32-32h192c17.632 0 32 14.368 32 32v192c0 17.632-14.368 32-32 32h-192zM387.264 32.32h-192c-52.928 0-96 43.072-96 96v192c0 52.928 43.072 96 96 96h192c52.928 0 96-43.072 96-96v-192c0-52.96-43.072-96-96-96zM195.264 352.32c-17.632 0-32-14.336-32-32v-192c0-17.664 14.368-32 32-32h192c17.632 0 32 14.336 32 32v192c0 17.664-14.368 32-32 32h-192zM832.128 480.32h-192c-52.928 0-96 43.072-96 96v192c0 52.928 43.072 96 96 96h192c52.928 0 96-43.072 96-96v-192c0-52.96-43.072-96-96-96zM640.128 800.32c-17.664 0-32-14.368-32-32v-192c0-17.632 14.336-32 32-32h192c17.664 0 32 14.368 32 32v192c0 17.632-14.336 32-32 32h-192zM832.128 32.32h-192c-52.928 0-96 43.072-96 96v192c0 52.928 43.072 96 96 96h192c52.928 0 96-43.072 96-96v-192c0-52.96-43.072-96-96-96zM640.128 352.32c-17.664 0-32-14.336-32-32v-192c0-17.664 14.336-32 32-32h192c17.664 0 32 14.336 32 32v192c0 17.664-14.336 32-32 32h-192z" />
<glyph unicode="&#xe901;" glyph-name="attention" d="M992 447.904c0 5.76-0.992 10.592-1.28 11.136-0.192 2.88-1.152 8.064-2.080 10.816-0.256 0.672-0.544 1.376-0.832 2.080-0.48 1.568-1.024 3.104-1.6 4.32-88.544 193.632-279.104 323.744-474.208 323.744-195.072 0-385.632-130.016-473.76-322.592-1.056-2.112-1.792-4.096-2.272-5.856-0.224-0.544-0.448-1.088-0.64-1.6-1.76-5.088-1.792-8.64-1.632-7.744-0.832-3.744-1.568-11.168-1.568-11.168-0.224-2.272-0.224-4.032 0.032-6.304 0 0 0.736-6.464 1.088-7.808 0.128-1.824 0.576-4.512 1.12-6.976h-0.032c0.448-2.080 1.12-4.096 1.984-6.080 0.48-1.536 0.992-2.976 1.472-4.032 88.64-193.696 279.2-323.84 474.208-323.84 195.136 0 385.696 130.048 473.216 321.696 1.376 2.496 2.24 4.832 2.848 6.912 0.256 0.608 0.48 1.184 0.672 1.728 1.536 4.48 1.856 8.32 1.728 8.32 0 0 0 0-0.032-0.032 0.608 3.104 1.568 7.744 1.568 13.28zM927.328 445.536c-0.032-0.16-0.096-0.32-0.128-0.48-0.128-0.416-0.288-0.864-0.416-1.376-78.752-169.76-245.088-283.68-414.784-283.68-169.28 0-335.328 113.568-414.88 283.968-0.16 0.576-0.32 1.152-0.512 1.696-0.064 0.544-0.16 1.024-0.192 1.344-0.064 0.352-0.128 0.8-0.192 1.248l0.032 0.416c0.16 0.704 0.288 1.44 0.384 2.208 0.128 0.416 0.256 0.832 0.384 1.28 78.816 169.856 245.28 283.84 414.976 283.84 169.76 0 336.192-114.080 414.752-283.68 0.096-0.32 0.16-0.608 0.256-0.832 0.064-0.288 0.16-0.576 0.256-0.864 0.16-1.28 0.32-2.528 0.48-3.168-0.192-0.64-0.288-1.28-0.416-1.92zM512 608c-88.224 0-160-71.776-160-160s71.776-160 160-160 160 71.776 160 160-71.776 160-160 160zM512 352c-52.928 0-96 43.072-96 96s43.072 96 96 96 96-43.072 96-96-43.072-96-96-96z" />
<glyph unicode="&#xe902;" glyph-name="attentionfill" d="M992 447.904c0 5.76-0.992 10.592-1.28 11.136-0.192 2.88-1.152 8.064-2.080 10.816-0.256 0.672-0.544 1.376-0.832 2.080-0.48 1.568-1.024 3.104-1.6 4.32-88.544 193.632-279.104 323.744-474.208 323.744-195.072 0-385.632-130.016-473.76-322.592-1.056-2.112-1.792-4.096-2.272-5.856-0.224-0.544-0.448-1.088-0.64-1.6-1.76-5.088-1.792-8.64-1.632-7.744-0.832-3.744-1.568-11.168-1.568-11.168-0.224-2.272-0.224-4.032 0.032-6.304 0 0 0.736-6.464 1.088-7.808 0.128-1.824 0.576-4.512 1.12-6.976h-0.032c0.448-2.080 1.12-4.096 1.984-6.080 0.48-1.536 0.992-2.976 1.472-4.032 88.64-193.696 279.2-323.84 474.208-323.84 195.136 0 385.696 130.048 473.216 321.696 1.376 2.496 2.24 4.832 2.848 6.912 0.256 0.608 0.48 1.184 0.672 1.728 1.536 4.48 1.856 8.32 1.728 8.32 0 0 0 0-0.032-0.032 0.608 3.104 1.568 7.744 1.568 13.28zM512 288c-88.224 0-160 71.776-160 160s71.776 160 160 160 160-71.776 160-160-71.776-160-160-160z" />
<glyph unicode="&#xe903;" glyph-name="baby" d="M512.008-54.286c-48.953 0-96.893 7.979-142.49 23.714-44.11 15.223-84.963 37.31-121.423 65.646-68.404 53.165-117.432 125.985-139.46 206.568-61.147 4.138-109.635 55.207-109.635 117.386 0 64.899 52.779 117.698 117.654 117.698h4.112c13.019 33.689 30.831 65.509 53.075 94.784 25.283 33.273 55.723 62.521 90.475 86.933 72.081 50.633 157.731 77.396 247.691 77.396 89.947 0 175.584-26.764 247.651-77.398 34.746-24.412 65.18-53.661 90.457-86.934 22.239-29.275 40.046-61.092 53.061-94.781h4.11c64.907 0 117.714-52.799 117.715-117.698 0-62.184-48.509-113.254-109.692-117.386-22.021-80.583-71.036-153.401-139.429-206.567-36.454-28.337-77.3-50.424-121.403-65.646-45.59-15.737-93.524-23.715-142.469-23.715zM116.654 430.727c-39.51 0-71.654-32.164-71.654-71.698 0-39.512 32.144-71.656 71.655-71.656h10.049c10.79 0 20.13-7.501 22.458-18.037 35.55-160.864 188.149-277.621 362.846-277.621 174.669 0 327.236 116.756 362.771 277.619 2.328 10.537 11.668 18.039 22.459 18.039h10.049c39.543 0 71.714 32.145 71.714 71.656-0.001 39.534-32.172 71.698-71.715 71.698h-20.248c-9.873 0-18.646 6.302-21.797 15.659-49.045 145.617-190.999 243.454-353.234 243.454-162.264 0-304.248-97.838-353.309-243.457-3.152-9.355-11.923-15.656-21.796-15.656h-20.248zM397.789 247.658c-28.868 0-52.354 23.477-52.354 52.333s23.486 52.335 52.354 52.335c28.857 0 52.334-23.478 52.334-52.335 0-28.856-23.477-52.333-52.334-52.333zM640.303 247.658c-28.868 0-52.354 23.477-52.354 52.333s23.485 52.335 52.354 52.335c28.857 0 52.334-23.478 52.334-52.335 0-28.856-23.477-52.333-52.334-52.333zM511.957 92.291c-39.656 0-78.469 10.98-112.247 31.757l-6.045 3.738c-10.803 6.682-14.145 20.856-7.463 31.659s20.855 14.146 31.659 7.464l5.997-3.709c54.341-33.427 121.907-33.416 176.281 0.056l5.992 3.696c10.809 6.669 24.981 3.312 31.65-7.499s3.312-24.981-7.499-31.651l-6.011-3.708c-33.799-20.805-72.622-31.798-112.292-31.803-0.006 0-0.015 0-0.022 0zM545.653 687.851c-78.983 0-143.241 64.257-143.241 143.24 0 65.725 53.471 119.195 119.195 119.195 55.112 0 99.949-44.844 99.949-99.964 0-46.62-37.94-84.548-84.576-84.548-39.834 0-72.242 32.407-72.242 72.241 0 12.703 10.297 23 23 23s23-10.297 23-23c0-14.469 11.772-26.241 26.242-26.241 21.271 0 38.576 17.292 38.576 38.548 0 29.756-24.201 53.964-53.949 53.964-40.36 0-73.195-32.835-73.195-73.195 0-53.618 43.622-97.24 97.241-97.24 12.702 0 23-10.297 23-23s-10.298-23-23-23z" />
<glyph unicode="&#xe904;" glyph-name="back" d="M671.968 48c-12.288 0-24.576 4.672-33.952 14.048l-351.968 351.968c-18.752 18.72-18.752 49.12 0 67.872l351.968 352c18.752 18.752 49.12 18.752 67.872 0 18.752-18.72 18.752-49.12 0-67.872l-318.016-318.048 318.016-318.016c18.752-18.752 18.752-49.12 0-67.872-9.344-9.408-21.632-14.080-33.92-14.080z" />
<glyph unicode="&#xe905;" glyph-name="camera2" d="M512 224c-105.888 0-192 86.112-192 192s86.112 192 192 192 192-86.112 192-192-86.112-192-192-192zM512 544c-70.592 0-128-57.408-128-128s57.408-128 128-128c70.592 0 128 57.408 128 128s-57.408 128-128 128zM864 64h-704c-52.928 0-96 43.072-96 96v512c0 52.928 43.072 96 96 96h96c17.664 0 32-14.336 32-32s-14.336-32-32-32h-96c-17.632 0-32-14.368-32-32v-512c0-17.664 14.368-32 32-32h704c17.664 0 32 14.336 32 32v512c0 17.632-14.336 32-32 32h-352c-17.664 0-32 14.336-32 32s14.336 32 32 32h352c52.928 0 96-43.072 96-96v-512c0-52.928-43.072-96-96-96zM768 624c0-26.51 21.49-48 48-48s48 21.49 48 48c0 26.51-21.49 48-48 48s-48-21.49-48-48zM480 832c0-17.664-14.336-32-32-32h-128c-17.664 0-32 14.336-32 32v0c0 17.664 14.336 32 32 32h128c17.664 0 32-14.336 32-32v0z" />
<glyph unicode="&#xe906;" glyph-name="camera" d="M954.632 66.93h-885.238c-38.285 0-69.394 31.092-69.394 69.335v526.163c0 38.233 31.109 69.326 69.394 69.326h213.458c11.188 15.074 20.167 31.75 28.218 46.689 15.176 28.176 27.173 50.45 49.135 50.45l169.349 0.177 134.252-0.177c21.97 0 33.941-22.274 49.134-50.467 8.026-14.923 17.014-31.599 28.192-46.673h213.501c38.242 0 69.368-31.093 69.368-69.326v-526.163c-0.001-38.242-31.127-69.334-69.369-69.334zM989.906 662.428c0 19.425-15.833 35.258-35.274 35.258h-229.991l-5.109 6.306c-15.546 19.113-27.231 40.839-36.606 58.308-6.896 12.781-16.355 30.283-21.094 32.931l-67.665-0.329-99.702 0.102-134.26-0.169c-2.773-2.251-12.225-19.753-19.096-32.534-9.408-17.452-21.119-39.194-36.657-58.308l-5.108-6.306h-229.95c-19.458 0-35.291-15.833-35.291-35.258v-526.163c0-19.425 15.833-35.241 35.291-35.241h885.238c19.441 0 35.274 15.816 35.274 35.241v526.162zM791.514 570.937c-20.47 0-37.062 16.574-37.062 37.036s16.592 37.036 37.062 37.036 37.062-16.574 37.062-37.036-16.593-37.036-37.062-37.036zM510.229 166.109c-129.631 0-235.092 105.384-235.092 234.881 0 129.547 105.461 234.906 235.092 234.906s235.101-105.359 235.101-234.906c0-129.497-105.469-234.881-235.101-234.881zM510.229 601.827c-110.831 0-200.989-90.074-200.989-200.837 0-110.747 90.158-200.821 200.989-200.821s200.989 90.074 200.989 200.821c0.001 110.763-90.157 200.837-200.989 200.837zM117.752 788.788h100.301v-39.211h-100.301v39.211z" />
<glyph unicode="&#xe907;" glyph-name="camerafill" d="M864 768h-352c0 52.928-43.072 96-96 96h-64c-52.928 0-96-43.072-96-96h-96c-52.928 0-96-43.072-96-96v-512c0-52.928 43.072-96 96-96h704c52.928 0 96 43.072 96 96v512c0 52.928-43.072 96-96 96zM512 224c-105.888 0-192 86.112-192 192s86.112 192 192 192 192-86.112 192-192-86.112-192-192-192zM816 544c-26.496 0-48 21.504-48 48s21.504 48 48 48c26.496 0 48-21.504 48-48s-21.504-48-48-48z" />
<glyph unicode="&#xe908;" glyph-name="cart" d="M352.512 128c-35.36 0-64-28.64-64-64s28.64-64 64-64 64 28.64 64 64-28.64 64-64 64v0zM800.512 128c-35.36 0-64-28.64-64-64s28.64-64 64-64 64 28.64 64 64-28.64 64-64 64v0zM864 160h-519.776c-46.112 0-86.656 36.48-92.288 83.040l-54.272 382.080-30.88 178.56c-1.92 15.584-16.128 28.32-30.016 28.32h-40.768c-17.664 0-32 14.336-32 32s14.336 32 32 32h40.768c46.688 0 87.68-36.48 93.344-83.040l30.816-177.888 54.496-383.712c1.792-14.848 15.232-27.36 28.8-27.36h519.776c17.696 0 32-14.304 32-32s-14.304-32-32-32zM384.224 288c-16.608 0-30.656 12.8-31.872 29.664-1.312 17.632 11.936 32.96 29.536 34.24l434.112 32c15.936 0.096 29.376 12.608 31.136 26.848l50.4 288.384c1.28 10.752-1.696 22.528-8.128 29.824-4.128 4.672-9.312 7.040-15.36 7.040h-554.048c-17.664 0-32 14.336-32 32s14.336 32 32 32h554.048c24.448 0 46.912-10.144 63.264-28.608 18.688-21.088 27.264-50.816 23.52-81.632l-50.432-288.416c-5.44-44.864-45.952-81.344-92.064-81.344l-431.744-31.904c-0.8-0.064-1.6-0.096-2.368-0.096z" />
<glyph unicode="&#xe909;" glyph-name="cartfill" d="M353.024 128.192c-35.36 0-64-28.64-64-64s28.64-64 64-64 64 28.64 64 64-28.608 64-64 64v0zM801.024 128.192c-35.36 0-64-28.64-64-64s28.64-64 64-64 64 28.64 64 64-28.608 64-64 64v0zM937.312 771.52c-16.352 18.464-38.816 28.48-63.264 28.48h-641.184l-2.272 13.024c-5.6 46.56-46.592 82.976-93.312 82.976h-40.256c-17.696 0-32-14.304-32-32s14.304-32 32-32h40.256c13.92 0 28.128-12.672 30.016-28.256l30.912-178.496 54.272-382.112c5.632-46.56 46.176-83.136 92.288-83.136h520.256c17.696 0 32 14.304 32 32s-14.304 32-32 32h-520.256c-13.632 0-27.040 12.608-28.832 27.456l-5.312 37.344 507.712 31.392c46.080 0 86.624 36.512 92.064 81.376l50.432 288.352c3.744 30.816-4.832 60.512-23.52 81.6z" />
<glyph unicode="&#xe90a;" glyph-name="category" d="M110.703 835.459h-83.027c-15.284 0-27.676-12.392-27.676-27.675 0-15.298 12.392-27.676 27.676-27.676h83.027c15.283 0 27.675 12.378 27.675 27.676 0 15.283-12.392 27.675-27.675 27.675zM249.081 780.108h747.243c15.298 0 27.676 12.378 27.676 27.676 0 15.283-12.378 27.675-27.676 27.675h-747.243c-15.284 0-27.676-12.392-27.676-27.675 0-15.298 12.392-27.676 27.676-27.676zM110.703 475.676h-83.027c-15.284 0-27.676-12.405-27.676-27.676 0-15.284 12.392-27.676 27.676-27.676h83.027c15.283 0 27.675 12.392 27.675 27.676 0 15.271-12.392 27.676-27.675 27.676zM996.324 475.676h-747.243c-15.284 0-27.676-12.405-27.676-27.676 0-15.284 12.392-27.676 27.676-27.676h747.243c15.298 0 27.676 12.392 27.676 27.676 0 15.271-12.378 27.676-27.676 27.676zM110.703 115.892h-83.027c-15.284 0-27.676-12.378-27.676-27.676s12.392-27.675 27.676-27.675h83.027c15.283 0 27.675 12.378 27.675 27.675 0 15.298-12.392 27.676-27.675 27.676zM996.324 115.892h-747.243c-15.284 0-27.676-12.378-27.676-27.676s12.392-27.675 27.676-27.675h747.243c15.298 0 27.676 12.378 27.676 27.675 0 15.298-12.378 27.676-27.676 27.676z" />
<glyph unicode="&#xe90b;" glyph-name="check" d="M887.904 661.792c-12.864 12.064-33.152 11.488-45.216-1.408l-426.752-454.368-233.12 229.696c-12.608 12.416-32.864 12.288-45.28-0.32-12.416-12.576-12.256-32.864 0.352-45.248l256.48-252.672c0.096-0.096 0.224-0.128 0.32-0.224s0.128-0.224 0.224-0.32c2.016-1.92 4.448-3.008 6.784-4.288 1.152-0.672 2.144-1.664 3.36-2.144 3.776-1.472 7.776-2.24 11.744-2.24 4.192 0 8.384 0.832 12.288 2.496 1.312 0.544 2.336 1.664 3.552 2.368 2.4 1.408 4.896 2.592 6.944 4.672 0.096 0.096 0.128 0.256 0.224 0.352 0.064 0.096 0.192 0.128 0.288 0.224l449.184 478.208c12.16 12.832 11.488 33.088-1.376 45.216z" />
<glyph unicode="&#xe90c;" glyph-name="clear" d="M885.389-57.125h-679.4v440.816c0 32.571 12.441 63.674 36.978 92.445 18.375 21.545 43.637 41.817 75.086 60.254 34.893 20.456 69.474 34.058 89.205 41.015v97.646h-8.413v23.125c0 5.572-3.104 12.075-8.935 19.076-12.73-48.312-39.319-96.91-40.786-99.569l-10.451-18.953-48.083 22.504 6.94 19.743c15.255 43.396-3.409 107.073-15.444 140.183-39.954 15.909-74.475 25.438-74.846 25.54l-2.479 0.68-66.149-15.996v166.231l65.301-20.755h497.057v-261.809h-4.537l24.005-84.094c37.282-19.036 164.951-92.604 164.951-207.266v-440.816zM252.239-10.875h586.899v394.565c0 51.904-39.23 94.918-72.142 121.863-37.527 30.724-75.131 47.909-75.506 48.079l-9.759 4.418-46.599 163.25h19.586v169.31h-418.241v-44.34c16.631-5.158 43.58-14.111 72.554-26.141l9.101-3.778 3.578-9.181c7.834-20.099 17.487-48.791 23.088-79.847 3.345 12.274 5.494 24.037 5.548 34.045l0.229 42.75 35.655-23.588c28.491-18.849 46.738-38.693 54.526-59.231h12.751v-177.935l-16.621-4.872c-0.468-0.138-48.855-14.553-96.158-42.424-40.369-23.785-88.489-62.59-88.489-112.379v-394.564zM184.862 894.385v-44.235l1.742 0.421v43.26l-1.742 0.554zM441.688 613.812h240v-43.125h-240v43.125zM758.772 118.895c-41.722 0-88.023 22.248-140.887 67.57-125.738 107.803-368.058-2.305-370.491-3.429l-19.446 41.963c2.728 1.266 67.762 31.156 151.176 46.38 49.644 9.063 95.554 11 136.455 5.766 52.728-6.75 97.276-25.446 132.41-55.568 48.867-41.896 89.676-60.601 121.297-55.619 25.827 4.076 44.156 23.077 61.883 41.452 4.58 4.747 8.905 9.231 13.337 13.419l31.766-33.615c-3.653-3.452-7.618-7.563-11.816-11.914-19.759-20.482-46.819-48.534-87.96-55.026-5.817-0.92-11.724-1.379-17.724-1.379z" />
<glyph unicode="&#xe90d;" glyph-name="close" d="M557.312 446.752l265.28 263.904c12.544 12.48 12.608 32.704 0.128 45.248-12.512 12.576-32.704 12.608-45.248 0.128l-265.344-263.936-263.040 263.84c-12.448 12.48-32.704 12.544-45.248 0.064-12.512-12.48-12.544-32.736-0.064-45.28l262.976-263.776-265.152-263.744c-12.544-12.48-12.608-32.704-0.128-45.248 6.24-6.272 14.464-9.44 22.688-9.44 8.16 0 16.32 3.104 22.56 9.312l265.216 263.808 265.44-266.24c6.24-6.272 14.432-9.408 22.656-9.408 8.192 0 16.352 3.136 22.592 9.344 12.512 12.48 12.544 32.704 0.064 45.248l-265.376 266.176z" />
<glyph unicode="&#xe90e;" glyph-name="comment" d="M512 32c-8.192 0-16.384 3.136-22.624 9.376l-96 96c-12.512 12.512-12.512 32.736 0 45.248s32.736 12.512 45.248 0l73.376-73.376 73.376 73.376c5.984 6.016 14.112 9.376 22.624 9.376h224c17.664 0 32 14.336 32 32v512c0 17.632-14.336 32-32 32h-640c-17.632 0-32-14.368-32-32v-512c0-17.664 14.368-32 32-32h96c17.664 0 32-14.304 32-32s-14.336-32-32-32h-96c-52.928 0-96 43.072-96 96v512c0 52.928 43.072 96 96 96h640c52.928 0 96-43.072 96-96v-512c0-52.928-43.072-96-96-96h-210.752l-86.624-86.624c-6.24-6.24-14.432-9.376-22.624-9.376zM336 448c-26.464 0-48 21.536-48 48s21.536 48 48 48 48-21.536 48-48-21.536-48-48-48zM528 448c-26.464 0-48 21.536-48 48s21.536 48 48 48 48-21.536 48-48-21.536-48-48-48zM720 448c-26.464 0-48 21.536-48 48s21.536 48 48 48 48-21.536 48-48-21.536-48-48-48z" />
<glyph unicode="&#xe90f;" glyph-name="commentfill" d="M832 832h-640c-52.928 0-96-43.072-96-96v-512c0-52.928 43.072-96 96-96h210.752l86.624-86.624c6.24-6.24 14.432-9.376 22.624-9.376s16.384 3.136 22.624 9.376l86.624 86.624h210.752c52.928 0 96 43.072 96 96v512c0 52.928-43.072 96-96 96zM336 448c-26.464 0-48 21.536-48 48s21.536 48 48 48 48-21.536 48-48-21.536-48-48-48zM528 448c-26.464 0-48 21.536-48 48s21.536 48 48 48 48-21.536 48-48-21.536-48-48-48zM720 448c-26.464 0-48 21.536-48 48s21.536 48 48 48 48-21.536 48-48-21.536-48-48-48z" />
<glyph unicode="&#xe910;" glyph-name="coupon" d="M1024 426.172v-0.478c0-7.148-3.589-13.194-8.791-17.285l-421.628-421.603c-8.496-8.501-22.263-8.501-30.759 0-8.474 8.479-8.474 22.252 0 30.729l416.652 416.637v147.376c0 12.285 9.95 22.252 22.263 22.252 12.29 0 22.263-9.967 22.263-22.252v-155.24c0-0.045 0-0.091 0-0.136zM418.66-54.538c-0.727-1.046-1.17-2.228-2.101-3.183-4.396-4.387-10.166-6.409-15.925-6.273-5.725-0.136-11.529 1.887-15.902 6.273-0.943 0.955-1.375 2.137-2.113 3.183l-373.161 373.143c-1.056 0.75-2.26 1.183-3.203 2.137-4.384 4.387-6.395 10.16-6.247 15.91-0.148 5.729 1.863 11.502 6.247 15.889 0.943 0.954 2.147 1.386 3.203 2.113l507.487 507.508c4.066 5.228 10.131 8.773 17.287 8.773h0.454c0.046 0 0.091 0 0.137 0h89.676c2.976 33.458 16.605 62.789 37.188 82.007l0.363-0.398c4.316 4.603 10.268 7.456 16.879 7.456 13.176 0 23.83-11.398 23.83-25.457 0-8.33-3.998-15.376-9.813-20.024-10.654-9.83-18.242-25.343-20.786-43.583h106.338c0.046 0 0.091 0 0.137 0h0.454c7.133 0 13.198-3.546 17.288-8.773l129.781-129.773c5.202-4.069 8.791-10.149 8.791-17.286v-0.466c0-0.045 0-0.091 0-0.148v-243.645c0-0.057 0-0.114 0-0.159v-0.455c0-7.148-3.589-13.206-8.791-17.286l-507.498-507.483zM890.401 706.626l-119.787 119.794h-93.775c3.885-9.898 9.404-18.308 16.106-24.502v0c0.908-0.728 2.021-1.17 2.839-2.034l0.364 0.398c23.217-21.661 38.414-55.846 38.414-94.712 0-0.921-0.228-1.75-0.25-2.671 26.647-15.388 44.775-43.867 44.775-76.836 0-49.186-39.846-89.053-89.051-89.053-49.159 0-89.051 39.867-89.051 89.053 0 47.799 37.756 86.484 85.030 88.632-1.977 19.786-9.791 36.696-21.127 47.174-0.909 0.728-2.045 1.17-2.84 2.046l-0.363-0.409c-16.584 15.479-28.782 37.514-34.575 62.914h-84.417l-489.766-489.768 347.707-347.732 489.768 489.79v227.916zM664.89 649.27c5.521 5.103 10.063 11.956 13.743 19.649-19.036-5.069-33.121-22.241-33.121-42.856 0-24.582 19.945-44.515 44.525-44.515 24.603 0 44.525 19.934 44.525 44.515 0 10.524-3.794 20.070-9.904 27.684-13.698-34.412-28.874-42.492-28.874-42.492-4.315-4.614-10.268-7.455-16.855-7.455-13.198 0-23.876 11.387-23.876 25.445 0 8.342 4.021 15.388 9.837 20.025zM251.156 374.815c8.496 8.5 22.251 8.5 30.759 0l156.895-156.899c8.496-8.501 8.496-22.252 0-30.753-8.496-8.478-22.251-8.478-30.736 0l-156.918 156.899c-8.485 8.501-8.485 22.275 0 30.753zM340.207 463.879c8.485 8.478 22.251 8.478 30.748 0l156.918-156.933c8.462-8.479 8.462-22.252 0-30.73-8.508-8.501-22.263-8.501-30.759 0l-156.907 156.911c-8.485 8.489-8.485 22.251 0 30.752z" />
<glyph unicode="&#xe911;" glyph-name="current" d="M387.957 323.918l559.777 553.428 76.266-69.957-629.611-788.735-394.389 368.912 152.693 82.696z" />
<glyph unicode="&#xe912;" glyph-name="delete" d="M608 192c-17.696 0-32 14.304-32 32v352c0 17.696 14.304 32 32 32s32-14.304 32-32v-352c0-17.696-14.304-32-32-32zM416 192c-17.696 0-32 14.304-32 32v352c0 17.696 14.304 32 32 32s32-14.304 32-32v-352c0-17.696-14.304-32-32-32zM928 736h-160v64c0 52.928-42.72 96-95.264 96h-320.736c-52.928 0-96-43.072-96-96v-64h-160c-17.696 0-32-14.304-32-32s14.304-32 32-32h832c17.696 0 32 14.304 32 32s-14.304 32-32 32zM320 800c0 17.632 14.368 32 32 32h320.736c17.536 0 31.264-14.048 31.264-32v-64h-384v64zM736.128 0h-448.064c-52.928 0-96 43.072-96 96v480.48c0 17.664 14.336 32 32 32s32-14.336 32-32v-480.48c0-17.664 14.368-32 32-32h448.064c17.664 0 32 14.336 32 32v479.168c0 17.664 14.304 32 32 32s32-14.336 32-32v-479.168c0-52.928-43.072-96-96-96z" />
<glyph unicode="&#xe913;" glyph-name="deletefill" d="M928 736h-160v64c0 52.928-42.72 96-95.264 96h-320.736c-52.928 0-96-43.072-96-96v-64h-160c-17.696 0-32-14.304-32-32s14.304-32 32-32h832c17.696 0 32 14.304 32 32s-14.304 32-32 32zM800 608h-576c-0.032 0 0.096 0 0.064 0-8.48 0-16.64-3.136-22.656-9.088-6.016-6.016-9.408-13.92-9.408-22.432v-480.48c0-52.928 43.136-96 96.064-96h448.064c52.928 0 95.872 43.072 95.872 96v480c0 17.632-14.336 31.936-32 32zM448 160c0-17.696-14.304-32-32-32s-32 14.304-32 32v352c0 17.696 14.304 32 32 32s32-14.304 32-32v-352zM640 160c0-17.696-14.304-32-32-32s-32 14.304-32 32v352c0 17.696 14.304 32 32 32s32-14.304 32-32v-352z" />
<glyph unicode="&#xe914;" glyph-name="diamond" d="M513 15.656c-6.821 0-13.295 3.012-17.688 8.229l-485 575.938c-6.933 8.232-7.27 20.16-0.812 28.771l181.875 242.5c4.367 5.823 11.221 9.25 18.5 9.25h606.25c7.279 0 14.133-3.427 18.5-9.25l181.875-242.5c6.458-8.61 6.121-20.538-0.812-28.771l-485-575.938c-4.393-5.217-10.867-8.229-17.688-8.229zM57.531 615.552l455.469-540.87 455.469 540.87-163.906 218.542h-583.125l-163.907-218.542zM998 591.594h-970c-12.771 0-23.125 10.354-23.125 23.125s10.354 23.125 23.125 23.125h970c12.771 0 23.125-10.354 23.125-23.125s-10.354-23.125-23.125-23.125zM513.006 15.65c-2.307 0-4.652 0.348-6.97 1.079-12.179 3.846-18.934 16.837-15.088 29.016l181.875 575.938c3.846 12.178 16.831 18.933 29.016 15.088 12.179-3.846 18.934-16.836 15.088-29.016l-181.875-575.938c-3.114-9.861-12.226-16.167-22.046-16.167zM512.994 15.65c-9.821 0-18.931 6.305-22.046 16.167l-181.875 575.938c-3.846 12.179 2.909 25.169 15.088 29.016 12.177 3.848 25.169-2.909 29.016-15.088l181.875-575.938c3.846-12.179-2.909-25.17-15.088-29.016-2.317-0.731-4.664-1.079-6.97-1.079zM331.143 591.589c-8.483 0-16.65 4.684-20.702 12.788l-121.25 242.5c-5.712 11.423-1.082 25.314 10.342 31.025s25.314 1.082 31.025-10.342l121.25-242.5c5.712-11.423 1.082-25.314-10.342-31.025-3.319-1.66-6.848-2.446-10.323-2.446zM331.107 591.592c-4.829 0-9.697 1.506-13.857 4.626-10.217 7.663-12.288 22.158-4.625 32.375l181.875 242.501c7.665 10.217 22.159 12.288 32.375 4.625s12.288-22.158 4.625-32.375l-181.875-242.5c-4.543-6.057-11.487-9.252-18.518-9.252zM694.893 591.592c-7.031 0-13.975 3.194-18.518 9.251l-181.875 242.501c-7.663 10.217-5.592 24.712 4.625 32.375s24.712 5.592 32.375-4.625l181.875-242.5c7.663-10.217 5.592-24.712-4.625-32.375-4.159-3.12-9.029-4.627-13.857-4.627zM694.857 591.589c-3.476 0-7.004 0.786-10.324 2.446-11.423 5.711-16.054 19.602-10.342 31.025l121.25 242.5c5.712 11.423 19.603 16.054 31.025 10.342s16.054-19.602 10.342-31.025l-121.25-242.5c-4.051-8.103-12.218-12.788-20.701-12.788z" />
<glyph unicode="&#xe915;" glyph-name="discount" d="M1023.597 382.778c2.827-100.342-70.717-141.342-132.455-186.391-10.313-113.753-68.274-208.464-181.484-210.906-1.176-0.022-2.352-0.045-3.505-0.045-39.102 0-68.749 14.066-106.855 19.651-40.254-17.798-64.44-48.961-105.419-61.286-17.911-5.404-34.601-7.802-50.238-7.802-87.282 0-141.49 75.488-180.286 135.327-114.521 10.403-213.1 67.822-213.382 183.927-0.091 38.626 14.146 67.438 19.606 105.498-14.508 34.33-49.244 66.828-61.275 105.409-36.907 118.004 62.62 188.811 127.525 230.49 7.779 119.417 74.222 213.586 191.253 213.586 15.491 0 31.842-1.629 49.063-5.066 13.647-2.747 31.694-12.381 46.383-12.381 0.916 0 1.82 0.022 2.669 0.112 27.895 2.397 75.397 49.357 105.407 58.821 18.171 5.722 35.223 8.278 51.189 8.278 88.967 0 144.69-79.582 181.823-133.337 114.16-9.114 211.449-71.396 213.349-183.915 0.679-39.859-13.886-71.791-19.63-110.406 23.384-51.369 64.34-82.295 66.262-149.564zM909.935 537.86c2.487 16.542 6.151 31.186 9.725 45.422 5.11 20.319 9.521 37.891 9.227 56.695-1.583 92.992-89.555 133.088-171.353 139.646-12.913 1.040-24.718 7.848-32.091 18.521-41.294 59.681-83.403 113.267-144.373 113.267-11.94 0-24.604-2.058-37.676-6.174-7.124-2.239-23.599-13.75-35.63-22.084-26.392-18.362-51.302-35.675-77.953-37.959-2.024-0.203-4.173-0.282-6.332-0.282-16.328 0-31.175 5.247-43.115 9.453-4.037 1.425-9.080 3.2-11.342 3.641-13.874 2.782-27.318 4.173-39.994 4.173-99.551 0-140.755-88.277-146.138-170.935-0.893-13.671-8.22-26.143-19.754-33.538-82.092-52.726-131.924-103.337-108.291-178.848 4.602-14.858 15.762-30.734 27.545-47.616 11.534-16.464 23.485-33.47 31.639-52.737 3.063-7.26 4.104-15.22 2.962-23-2.51-17.391-6.547-32.882-10.086-46.541-4.771-18.318-8.91-34.171-8.876-51.607 0.271-111.446 120.265-134.333 171.815-139.036 13.207-1.199 25.159-8.391 32.374-19.54 35.821-55.271 79.299-114.204 142.146-114.204 11.703 0 24.231 1.967 37.212 5.88 15.604 4.658 29.174 14.428 44.913 25.735 15.231 10.945 32.555 23.384 54.4 33.040 5.563 2.465 11.488 3.709 17.459 3.709 2.103 0 4.206-0.158 6.264-0.475 17.052-2.488 32.453-6.423 46.066-9.929 18.997-4.839 35.37-9.046 53.462-9.046l2.533 0.023c110.405 2.419 132.93 119.315 137.452 169.43 1.131 12.348 7.554 23.678 17.595 31.028 6.151 4.478 12.416 8.955 18.771 13.433 59.748 42.426 96.316 71.621 94.507 134.83-0.882 32.384-13.907 52.263-31.909 79.842-9.77 14.869-20.761 31.706-29.761 51.517-3.438 7.576-4.66 16.023-3.393 24.266zM664.292 181.643c-57.894 0-104.933 47.084-104.933 104.933 0 57.826 47.039 104.888 104.933 104.888 57.849 0 104.888-47.062 104.888-104.888 0-57.849-47.039-104.933-104.888-104.933zM664.292 345.147c-32.339 0-58.617-26.278-58.617-58.572 0-32.339 26.278-58.617 58.617-58.617 32.316 0 58.572 26.278 58.572 58.617 0 32.294-26.256 58.572-58.572 58.572zM346.655 236.099c-4.522-4.522-10.437-6.784-16.373-6.784-5.925 0-11.85 2.262-16.373 6.784-9.058 9.069-9.058 23.7 0 32.747l380.8 380.822c9.023 9.046 23.7 9.046 32.746 0 9.023-9.035 9.023-23.7 0-32.758l-380.8-380.811zM383.303 488.876c-57.86 0-104.933 47.084-104.933 104.922s47.072 104.899 104.933 104.899c57.849 0 104.922-47.062 104.922-104.899s-47.074-104.922-104.922-104.922zM383.303 652.393c-32.306 0-58.629-26.289-58.629-58.595 0-32.328 26.323-58.595 58.629-58.595 32.328 0 58.595 26.267 58.595 58.595-0.001 32.306-26.267 58.595-58.595 58.595z" />
<glyph unicode="&#xe916;" glyph-name="doubleCircle" d="M511.986 959.957c-282.771 0-511.986-229.215-511.986-511.957 0-282.801 229.215-511.957 511.986-511.957 282.743 0 512.014 229.156 512.014 511.957 0 282.742-229.271 511.957-512.014 511.957zM511.986-7.131c-251.349 0-455.101 203.811-455.101 455.131s203.752 455.072 455.101 455.072c251.377 0 455.072-203.752 455.072-455.072s-203.695-455.131-455.072-455.131zM511.986 846.217c-219.925 0-398.216-178.291-398.216-398.217 0-219.955 178.291-398.189 398.217-398.189 219.898 0 398.131 178.234 398.131 398.189-0.001 219.926-178.233 398.217-398.132 398.217z" />
<glyph unicode="&#xe917;" glyph-name="drink" d="M650.476-64.492h-381.27c-11.692 0-21.523 8.772-22.851 20.389l-78.878 690.222c-0.744 6.512 1.325 13.033 5.689 17.924s10.607 7.688 17.162 7.688h539.025c6.555 0 12.798-2.797 17.162-7.688s6.434-11.412 5.689-17.924l-78.878-690.222c-1.327-11.617-11.158-20.389-22.85-20.389zM289.728-18.492h340.227l73.621 644.222h-487.47l73.622-644.222zM712.215 475.546h-502.399c-12.703 0-23 10.297-23 23s10.297 23 23 23h502.399c12.702 0 23-10.297 23-23s-10.298-23-23-23zM439.518 259.828h-94.111c-12.703 0-23 10.298-23 23v94.143c0 12.702 10.297 23 23 23h94.111c12.703 0 23-10.298 23-23v-94.143c0-12.702-10.298-23-23-23zM368.406 305.828h48.111v48.143h-48.111v-48.143zM549.35 68.506c-4.074 0-8.198 1.082-11.934 3.354l-80.396 48.915c-5.211 3.171-8.95 8.282-10.393 14.209-1.443 5.928-0.472 12.186 2.7 17.396l48.946 80.428c3.171 5.211 8.283 8.949 14.211 10.392 5.929 1.442 12.186 0.47 17.396-2.703l80.397-48.946c10.85-6.605 14.29-20.756 7.685-31.605l-48.946-80.397c-4.33-7.114-11.906-11.043-19.666-11.043zM500.582 148.116l41.101-25.007 25.028 41.11-41.102 25.023-25.027-41.126zM730.158 456.533c-6.478 0-12.569 0.282-18.621 0.863-12.645 1.213-21.912 12.447-20.698 25.092 1.213 12.645 12.441 21.904 25.091 20.698 4.578-0.439 9.232-0.653 14.229-0.653 83.378 0 151.21 67.819 151.21 151.18 0 83.37-67.832 151.196-151.21 151.196s-151.211-67.826-151.211-151.196c0-12.703-10.298-23-23-23s-23 10.297-23 23c0 108.734 88.469 197.196 197.211 197.196s197.21-88.462 197.21-197.196c-0.001-108.725-88.469-197.18-197.211-197.18zM345.335 630.709c-10.987 0-20.707 7.899-22.638 19.094l-44.968 260.705h-158.098c-12.703 0-23 10.297-23 23s10.297 23 23 23h177.47c11.194 0 20.763-8.059 22.666-19.090l48.261-279.795c2.159-12.518-6.238-24.416-18.755-26.575-1.324-0.229-2.64-0.339-3.938-0.339zM729.325 625.73c-12.702 0-23 10.297-23 23v179.18c0 12.703 10.298 23 23 23s23-10.297 23-23v-179.18c0-12.703-10.298-23-23-23zM852.863 508.022c-5.886 0-11.771 2.245-16.263 6.736l-245.412 245.398c-8.982 8.981-8.983 23.544-0.001 32.527 8.98 8.981 23.544 8.983 32.526 0l245.412-245.397c8.982-8.981 8.983-23.544 0.001-32.527-4.489-4.49-10.377-6.737-16.263-6.737zM729.325 625.73c-5.887 0-11.771 2.245-16.264 6.737-8.981 8.982-8.981 23.544 0 32.527l124.254 124.253c8.982 8.981 23.543 8.982 32.527 0 8.981-8.982 8.981-23.544 0-32.527l-124.253-124.254c-4.491-4.49-10.378-6.736-16.264-6.736zM904.368 630.713h-175.014c-12.702 0-23 10.297-23 23s10.298 23 23 23h175.015c12.702 0 23-10.297 23-23s-10.299-23-23.001-23z" />
<glyph unicode="&#xe918;" glyph-name="duihuanjifen" d="M512 749.167c124.764 0 195.763 66.822 195.763 120.469 0 41.471-91.499 88.94-210.821 90.353-86.44 1-180.601-59.117-180.704-90.353-0.176-56.558 68.014-120.469 195.762-120.469zM527.059 719.050c-237.262 0-451.759-235.527-451.759-451.76 0-216.232 213.747-331.29 451.759-331.29 236.232 0 421.641 115.058 421.641 331.29 0 216.233-206.114 451.76-421.641 451.76zM677.646 351.289c0-13.117-10.647-23.764-23.765-23.764h-96.705v-60.235h96.705c13.117 0 23.765-10.646 23.765-23.793v-12.677c0-13.117-10.647-23.765-23.765-23.765h-96.705v-45.176c0-24.971-20.22-45.176-45.176-45.176s-45.176 20.205-45.176 45.176v45.176h-96.69c-13.132 0-23.779 10.647-23.779 23.765v12.677c0 13.146 10.647 23.793 23.779 23.793h96.69v60.235h-96.69c-13.132 0-23.779 10.646-23.779 23.764v12.677c0 13.146 10.647 23.794 23.779 23.794h85.603l-74.676 72.381c-8.015 7.795-4.383 24 8.103 36.206 12.5 12.205 29.117 15.823 37.132 8.059l64.411-62.47c6.427 3.529 13.441 6.059 21.294 6.059 7.941 0 15.015-2.588 21.485-6.177l64.278 62.294c8 7.765 24.588 4.146 37.117-8.088 12.5-12.235 16.177-28.412 8.177-36.177l-74.353-72.087h85.176c13.117 0 23.765-10.647 23.765-23.794v-12.677z" />
<glyph unicode="&#xe919;" glyph-name="fold" d="M887.328 342.848l-353.376 350.144c-0.512 0.512-1.216 0.672-1.76 1.152-0.128 0.128-0.16 0.32-0.288 0.448-12.576 12.416-32.832 12.352-45.28-0.192l-350.112-353.344c-12.448-12.576-12.352-32.8 0.192-45.248 6.24-6.176 14.4-9.28 22.528-9.28 8.224 0 16.48 3.168 22.72 9.472l327.84 330.816 332.48-329.408c6.24-6.176 14.368-9.28 22.528-9.28 8.256 0 16.48 3.168 22.72 9.472 12.448 12.544 12.352 32.8-0.192 45.248z" />
<glyph unicode="&#xe91a;" glyph-name="forward" d="M544 0.256c-3.936 0-7.936 0.704-11.712 2.208-12.256 4.832-20.288 16.64-20.288 29.792v286.976c-238.56-11.584-392.896-149.28-394.496-150.72-10.176-9.248-25.056-10.976-37.056-4.288-12 6.656-18.4 20.224-15.936 33.728 0.832 4.512 20.896 111.296 88.896 219.2 91.872 145.792 226.912 222.816 390.592 222.816 17.696 0 32-14.336 32-32s-14.304-32-32-32c-238.592 0-346.784-188.384-390.56-303.136 79.712 48.832 215.744 111.168 390.56 111.168 17.696 0 32-14.304 32-32v-238.464l308.384 330.912-308.384 334.24v-42.688c0-17.664-14.304-32-32-32-17.664 0-32 14.336-32 32v124.576c0 13.184 8.064 24.992 20.352 29.792 12.256 4.832 26.208 1.6 35.2-8.096l384-416.224c11.328-12.32 11.296-31.296-0.128-43.52l-384-412.096c-6.176-6.624-14.72-10.176-23.424-10.176z" />
<glyph unicode="&#xe91b;" glyph-name="forwardfill" d="M951.52 466.048l-384 419.424c-8.96 9.696-22.944 12.928-35.2 8.096-12.256-4.8-20.32-16.64-20.32-29.792v-224.896c-149.28-9.44-272.768-85.664-358.592-221.824-68-107.936-88.064-214.688-88.896-219.2-2.464-13.408 3.904-26.912 15.776-33.6 11.872-6.72 26.72-5.152 36.96 3.904 1.6 1.472 156.992 136.576 394.752 148v-283.904c0-13.152 8.032-24.96 20.288-29.792 3.808-1.504 7.776-2.208 11.712-2.208 8.704 0 17.248 3.552 23.392 10.176l384 412.096c11.424 12.224 11.488 31.2 0.128 43.52z" />
<glyph unicode="&#xe91c;" glyph-name="gift" d="M963.081 427.596v-364.013c0-44.717-36.22-80.938-80.937-80.938h-647.541c-44.695 0-80.937 36.221-80.937 80.938v364.171h-60.692v161.886c0 44.672 36.242 80.926 80.937 80.926h52.739c12.815-5.431 25.903-11.634 39.446-19.121 14.452-7.998 28.471-14.974 42.173-21.359h-134.358c-22.358 0-40.468-18.11-40.468-40.446v-121.417h404.685v161.862h-62.305c-0.591 1.318-1.5 2.784-2.159 4.147-8.044-1.454-16.36-2.443-25.268-2.443-44.059 0-98.614 17.86-162.896 53.42-178.575 98.808-248.765 14.122-249.537 13.167-7.044-8.703-19.791-9.986-28.494-2.954-8.657 7.032-9.998 19.768-2.931 28.459 0.977 1.227 92.685 111.771 300.571-3.272 93.479-51.739 144.468-52.841 170.78-44.547 0.159 0.057 0.25 0.137 0.433 0.193-11.748 9.861-19.132 21.711-19.132 34.765 0 0.772 0.362 1.5 0.408 2.261 1.954 1.080 3.728 2.238 6.317 3.022-1.772-0.557-3.863-0.943-6.021-1.25 0.795 6.987 3.112 13.724 7.521 19.871-27.63 68.792-71.030 138.356-129.29 138.356-47.648 0-87.436-33.186-98.115-77.597-13.225 4.249-26.29 7.748-39.173 10.407 15.406 61.509 70.667 107.261 136.947 107.261 79.597 0 131.517-79.017 162.829-153.592 16.769 7.442 37.333 11.963 59.759 11.963 22.45 0 42.991-4.521 59.783-11.963 31.311 74.575 83.209 153.592 162.828 153.592 78.21 0 141.628-63.418 141.628-141.628 0-39.685-16.428-75.461-42.719-101.16h62.965c44.672 0 80.937-36.253 80.937-80.926l0.206-162.053-60.919 0.012zM578.619 23.115h303.525c22.357 0 40.468 18.108 40.468 40.468v364.171h-343.993v-404.639zM194.157 427.754v-364.171c0-22.358 18.11-40.468 40.446-40.468h303.525v404.639h-343.971zM558.373 731.257c-33.516 0-60.691-9.066-60.691-20.234 0-4.147 3.772-7.998 10.181-11.202 5.68 3.317 12.679 4.136 18.996 1 3.84-1.897 6.452-5.022 8.406-8.487 7.136-0.989 14.93-1.545 23.108-1.545 33.516 0 60.715 9.066 60.715 20.234s-27.199 20.234-60.715 20.234zM881.826 772.111c0 55.784-45.399 101.171-101.184 101.171-58.282 0-101.683-69.564-129.289-138.345 5.247-7.351 8.201-15.428 8.201-23.915 0-15.428-9.905-29.357-25.697-40.060h146.785c55.785 0.001 101.184 45.389 101.184 101.149zM983.326 589.64c0 22.336-18.132 40.446-40.469 40.446h-364.238v-161.863h404.707v121.417z" />
<glyph unicode="&#xe91d;" glyph-name="guide" d="M897.18 534.897l127.32 135.715-127.32 135.695h-320.718v87.866l-4.521 3.125c-19.686 13.592-41.37 20.487-64.462 20.487-38.84 0-67.764-19.654-68.982-20.487l-4.5-3.125v-87.866h-243.58v-271.41h243.58v-55.921h-306.156l-127.341-135.529 127.341-135.527h306.156v-228.706h142.464v228.706h258.141v271.056h-258.14v55.921h320.718zM455.266 882.966c8.489 4.729 28.153 13.967 52.213 13.967 16.863 0 32.903-4.625 47.714-13.738v-76.888h-99.927v76.659zM211.697 555.749v229.706h676.128l107.76-114.843-107.76-114.863h-676.128zM555.193 0.066h-99.927v207.854h99.927v-207.854zM813.334 458.124v-229.352h-676.161l-107.749 114.675 107.75 114.676h676.16zM555.193 478.976h-99.927v55.921h99.927v-55.921z" />
<glyph unicode="&#xe91e;" glyph-name="index" d="M866.172-28.678h-196.161v369.9c0 43.231-35.151 78.462-78.347 78.462h-159.328c-43.195 0-78.346-35.23-78.346-78.462v-369.9h-196.161v499.084h-35.242v-534.406h778.828v534.406h-35.242v-499.084zM634.769-28.678h-245.537v369.9c0 23.775 19.359 43.141 43.104 43.141h159.328c23.745 0 43.104-19.365 43.104-43.141v-369.9zM512.022 960l-512.022-506.278 24.79-25.093 487.232 481.741 487.188-481.741 24.79 25.093-511.978 506.278z" />
<glyph unicode="&#xe91f;" glyph-name="info" d="M512 1.984c-245.92 0-446.016 200.064-446.016 446.016 0 245.92 200.096 446.016 446.016 446.016 245.952 0 446.016-200.064 446.016-446.016s-200.064-446.016-446.016-446.016zM512 830.016c-210.656 0-382.016-171.36-382.016-382.016 0-210.624 171.36-382.016 382.016-382.016 210.624 0 382.016 171.36 382.016 382.016s-171.392 382.016-382.016 382.016zM464 656c0-26.51 21.49-48 48-48s48 21.49 48 48c0 26.51-21.49 48-48 48s-48-21.49-48-48zM512 192c-17.664 0-32 14.304-32 32v288c0 17.664 14.336 32 32 32s32-14.336 32-32v-288c0-17.696-14.336-32-32-32z" />
<glyph unicode="&#xe920;" glyph-name="infofill" d="M512 894.016c-245.952 0-446.016-200.064-446.016-446.016s200.064-446.016 446.016-446.016 446.016 200.064 446.016 446.016-200.064 446.016-446.016 446.016zM544 224c0-17.696-14.304-32-32-32s-32 14.304-32 32v288c0 17.696 14.304 32 32 32s32-14.304 32-32v-288zM512 608c-26.496 0-48 21.536-48 48 0 26.528 21.504 48 48 48s48-21.472 48-48c0-26.464-21.504-48-48-48z" />
<glyph unicode="&#xe921;" glyph-name="jiatingyongpin" d="M819.146 13.963h-717.712c-56.482 0-102.434 45.978-102.434 102.494v434.057c0 56.482 45.952 102.434 102.434 102.434h717.712c56.482 0 102.435-45.952 102.435-102.434v-434.057c-0.001-56.516-45.953-102.494-102.435-102.494zM101.434 606.948c-31.118 0-56.434-25.316-56.434-56.434v-434.057c0-31.151 25.316-56.494 56.434-56.494h717.712c31.117 0 56.434 25.344 56.435 56.495v434.056c0 31.118-25.316 56.434-56.435 56.434h-717.712zM154.594-42.802c-30.328 0-55.001 24.673-55.001 55v24.765c0 12.702 10.297 23 23 23h64.002c12.703 0 23-10.298 23-23v-24.765c0-30.327-24.673-55-55.001-55zM145.593 13.963v-1.765c0-4.963 4.038-9 9.001-9s9.001 4.037 9.001 9v1.765h-18.002zM766.002-42.802c-30.345 0-55.031 24.673-55.031 55v24.765c0 12.702 10.298 23 23 23h64.031c12.702 0 23-10.298 23-23v-24.765c0-30.327-24.673-55-55-55zM756.971 13.963v-1.765c0-4.963 4.052-9 9.031-9 4.963 0 9 4.037 9 9v1.765h-18.031zM898.58 429.987c-3.989 0-7.976 1.036-11.545 3.107-7.091 4.115-11.455 11.694-11.455 19.893v66.483c0 8.256 4.426 15.879 11.596 19.973l60.234 34.394c7.865 4.496 16.751 6.875 25.69 6.875 28.617 0 51.899-23.28 51.899-51.895 0-18.558-10.009-35.807-26.121-45.017l-88.89-50.784c-3.534-2.019-7.471-3.029-11.408-3.029zM921.58 506.118v-13.501l54.476 31.123c1.814 1.037 2.944 2.984 2.944 5.078 0 4.021-3.521 5.895-5.899 5.895-0.973 0-1.912-0.267-2.873-0.816l-48.648-27.779zM633.871 606.948h-347.192c-12.703 0-23 10.297-23 23v110.457c-14.487 7.191-27.323 17.685-37.128 30.527-13.932 18.25-21.296 40.049-21.296 63.042 0 57.801 47.025 104.826 104.826 104.826h300.404c57.801 0 104.825-47.024 104.825-104.826 0-22.998-7.36-44.797-21.286-63.041-9.807-12.847-22.653-23.345-37.153-30.536v-110.45c0-12.701-10.298-22.999-23-22.999zM309.679 652.948h301.192v102.999c0 10.153 6.657 19.105 16.381 22.027 25.156 7.56 42.059 30.064 42.059 56.001 0 32.437-26.389 58.826-58.825 58.826h-300.405c-32.437 0-58.826-26.389-58.826-58.826 0-25.929 16.899-48.435 42.051-56.003 9.72-2.925 16.373-11.875 16.373-22.024v-103zM184.217 394.263c-36.965 0-67.038 30.080-67.038 67.054 0 36.965 30.073 67.039 67.038 67.039s67.038-30.074 67.038-67.039c0-36.974-30.073-67.054-67.038-67.054zM184.217 482.355c-11.6 0-21.038-9.438-21.038-21.039 0-11.609 9.438-21.054 21.038-21.054s21.038 9.445 21.038 21.054c0 11.601-9.438 21.039-21.038 21.039zM184.217 241.078c-36.965 0-67.038 30.094-67.038 67.083 0 36.956 30.073 67.022 67.038 67.022 17.907 0.001 34.743-6.975 47.408-19.642 12.659-12.661 19.63-29.488 19.63-47.381 0-36.988-30.073-67.082-67.038-67.082zM184.218 329.184c-11.601 0-21.039-9.431-21.039-21.022 0-11.625 9.438-21.083 21.038-21.083s21.038 9.458 21.038 21.083c0 5.607-2.188 10.884-6.161 14.857-3.975 3.975-9.258 6.165-14.876 6.165z" />
<glyph unicode="&#xe922;" glyph-name="liangyoutiaoliao" d="M1014.498 870.638l-80.409 80.002c-12.577 12.484-32.942 12.484-45.52 0-12.577-12.499-12.577-32.771 0-45.257l17.471-17.379-34.942-34.745-57.676 57.373c-12.551 12.498-32.942 12.498-45.493 0s-12.551-32.758 0-45.257l57.702-57.359-34.942-34.758-57.702 57.373c-12.55 12.498-32.916 12.498-45.493 0s-12.577-32.759 0-45.27l57.702-57.36-34.942-34.745-17.497 17.379c-12.524 12.485-32.916 12.485-45.467 0-12.577-12.498-12.577-32.758 0-45.27l17.47-17.365-88.46-88h-388.851c-17.773 0-32.18-14.327-32.18-31.996v-85.645c-9.814-10.473-26.431-27.983-40.533-42.007-25.589-25.444-45.546-55.124-59.334-88.225-13.787-33.047-20.772-68.094-20.772-104.142s6.985-71.095 20.76-104.142c6.473-15.524 14.366-30.285 23.483-44.23l-69.385-69.016c-12.563-12.498-12.563-32.731 0-45.256 6.289-6.236 14.511-9.341 22.76-9.341 8.223 0 16.472 3.104 22.733 9.341l65.346 64.99c24.299-22.839 52.177-40.941 83.093-53.703 33.232-13.682 68.451-20.628 104.669-20.628h160.858c36.258 0 71.463 6.92 104.694 20.628 33.285 13.735 63.123 33.601 88.698 59.044s45.52 55.098 59.307 88.172c13.787 33.047 20.786 68.095 20.786 104.142s-6.999 71.069-20.786 104.143c-13.787 33.074-33.758 62.754-59.307 88.198-14.104 14.050-30.732 31.561-40.573 42.033v72.37l88.486 88.014 17.472-17.379c6.288-6.236 14.498-9.367 22.733-9.367s16.497 3.131 22.76 9.367c12.551 12.498 12.551 32.771 0 45.257l-17.47 17.378 34.941 34.744 57.676-57.373c6.263-6.249 14.524-9.366 22.733-9.366 8.236 0 16.498 3.117 22.76 9.366 12.551 12.498 12.551 32.759 0 45.257l-57.701 57.373 34.941 34.745 57.676-57.373c6.315-6.249 14.524-9.367 22.786-9.367 8.21 0 16.445 3.118 22.733 9.367 12.577 12.511 12.577 32.758 0 45.27l-57.676 57.373 34.942 34.745 17.445-17.393c6.288-6.249 14.523-9.367 22.76-9.367 8.209 0 16.471 3.118 22.733 9.367 12.579 12.512 12.579 32.772 0.002 45.27zM662.208 128.366c-10.525-25.286-25.813-47.967-45.389-67.438-19.575-19.497-42.388-34.68-67.832-45.178-25.364-10.472-52.295-15.761-80.040-15.761h-160.858c-27.72 0-54.637 5.289-80.027 15.761-25.443 10.498-48.282 25.707-67.858 45.178-19.55 19.444-34.824 42.151-45.375 67.438-10.512 25.232-15.84 52.019-15.853 79.619 0 16.419 1.921 32.548 5.683 48.23 0.79-0.053 1.553-0.237 2.355-0.237h563.009c0.815 0 1.579 0.185 2.368 0.237 3.736-15.683 5.684-31.812 5.684-48.23-0.001-27.6-5.343-54.386-15.867-79.619zM645.026 319.995h-513.016c8.104 12.577 17.432 24.365 28.22 35.074 22.431 22.339 49.729 51.808 50.887 53.045 5.474 5.92 8.499 13.643 8.499 21.681v66.201h337.792v-66.201c0-8.038 3.053-15.761 8.525-21.681 1.157-1.237 28.47-30.706 50.887-53.045 10.787-10.709 20.102-22.497 28.206-35.074zM589.613 680.008c17.761 0 32.153-14.34 32.153-32.008 0-17.682-14.393-31.995-32.153-31.995h-402.164c-17.773 0-32.18 14.313-32.18 31.995 0 17.668 14.406 32.008 32.18 32.008h402.164z" />
<glyph unicode="&#xe923;" glyph-name="link" d="M545.856 320c-0.416 0-0.8 0-1.216 0-17.216 0-33.12 13.12-44.832 25.952l-36.992 43.392c-11.904 13.056-10.944 34.688 2.112 46.56 13.088 11.936 33.312 11.648 45.216-1.408l36.992-40.256 173.472 179.136-49.888 54.144-72-74.144c-12.48-12.544-32.704-12.672-45.248-0.192-12.576 12.416-12.672 32.704-0.256 45.248l73.44 74.176c12.128 12.256 28.992 18.336 45.408 18.752 17.184-0.16 33.184-7.168 45.056-19.68l49.888-52.512c23.872-25.12 23.52-65.728-0.736-90.464l-176-184.448c-12-12.128-27.68-24.256-44.416-24.256zM351.968 205.408c-16.32 0-32.64 6.048-45.088 18.208l-50.432 49.216c-12.224 11.936-19.040 27.936-19.2 45.056-0.128 17.152 6.4 33.28 18.464 45.44l179.040 187.104c12.032 12.128 28.096 25.568 45.216 25.568 0.032 0 0.096 0 0.16 0 17.088 0 33.12-13.344 45.152-25.376l41.312-44.672c12.512-12.512 12.512-34.432 0-46.912-12.512-12.512-32.736-13.344-45.248-0.832l-41.312 40.896-178.848-180.608 50.4-48.96 74.944 73.344c12.608 12.416 32.8 12.32 45.28-0.288 12.416-12.576 12.32-32.832-0.224-45.248l-74.176-73.408c-12.512-12.32-28.992-18.528-45.44-18.528zM512 0c-247.040 0-448 200.96-448 448s200.96 448 448 448 448-200.96 448-448-200.96-448-448-448zM512 832c-211.744 0-384-172.256-384-384s172.256-384 384-384c211.744 0 384 172.256 384 384s-172.256 384-384 384z" />
<glyph unicode="&#xe924;" glyph-name="locate" d="M508.75 960c-237.086 0-423.556-184.116-423.556-410.392 0-102.608 103.192-249.917 170.098-323.405v-0.084l3.5-11.581-3.167 0.041c64.906-74.029 187.886-244.834 190.303-248.126 15.997-19.371 38.202-30.453 62.281-30.453 24.038 0 46.576 11.082 63.031 30.829 98.399 122.479 121.729 157.974 137.228 181.47 11.499 17.414 17.247 26.121 52.908 66.114 18.164 20.371 177.43 202.717 177.43 335.195 0 226.276-192.928 410.392-430.056 410.392zM710.301 255.781c-38.744-43.409-45.784-53.991-58.572-73.404-13.998-21.164-37.452-56.491-133.646-176.305-3.333-3.999-7.166-6.208-10.708-6.208-3.541 0.042-7.249 2.209-9.29 4.583-5.249 7.124-127.604 174.972-194.385 251.168-61.157 69.653-158.016 211.173-158.016 293.993 0 191.052 162.849 346.527 363.066 346.527s363.023-155.475 363.023-346.527c0-77.487-83.651-206.59-161.472-293.827zM508.792 771.176c-110.19 0-199.842-85.548-199.842-190.677s89.651-190.656 199.842-190.656c110.148 0 199.76 85.528 199.76 190.656s-89.612 190.677-199.76 190.677zM508.792 453.749c-73.28 0-132.937 56.887-132.937 126.75 0 69.926 59.656 126.792 132.937 126.792 73.196 0 132.812-56.866 132.812-126.792 0-69.863-59.616-126.75-132.812-126.75z" />
<glyph unicode="&#xe925;" glyph-name="location" d="M512 352c-105.888 0-192 86.112-192 192s86.112 192 192 192 192-86.112 192-192-86.112-192-192-192zM512 672c-70.592 0-128-57.408-128-128s57.408-128 128-128c70.592 0 128 57.408 128 128s-57.408 128-128 128zM512 0c-7.936 0-15.904 2.944-22.080 8.832-12.768 12.224-13.248 32.48-1.056 45.248 86.528 90.72 311.136 355.584 311.136 489.92 0 158.784-129.184 288-288 288-158.784 0-288-129.216-288-288 0-75.616 72.544-206.080 204.256-367.424 11.2-13.728 9.152-33.888-4.544-45.024-13.696-11.168-33.888-9.152-45.024 4.544-145.12 177.728-218.688 314.976-218.688 407.904 0 194.080 157.92 352 352 352s352-157.92 352-352c0-187.36-315.424-520.032-328.832-534.080-6.304-6.592-14.72-9.92-23.168-9.92z" />
<glyph unicode="&#xe926;" glyph-name="locationfill" d="M512 896c-194.080 0-352-157.92-352-352 0-187.36 315.424-520.032 328.832-534.080 6.048-6.368 14.432-9.92 23.168-9.92 0.224 0 0.48 0 0.704 0 8.992 0 17.472 4.192 23.392 10.944l109.216 125.12c145.12 177.76 218.688 315.008 218.688 407.936 0 194.080-157.92 352-352 352zM512 384c-88.384 0-160 71.616-160 160s71.616 160 160 160 160-71.616 160-160-71.616-160-160-160z" />
<glyph unicode="&#xe927;" glyph-name="love" d="M939.28 385.584c-0.841-0.898-1.683-1.798-2.552-2.639l0.492 0.464c-0.349-0.377-0.755-0.783-1.103-1.16-67.984-69.087-365.271-356.425-377.134-367.854-12.616-12.789-29.322-19.838-47.131-19.838-17.778 0-34.514 7.049-46.464 19.2l-381.712 372.525c-1.015 1.044-2.001 2.117-2.872 3.22-52.148 56.555-80.804 130.253-80.804 207.837 0 167.496 133.765 303.784 298.157 303.784 81.848 0 158.186-33.499 213.698-91.854 55.513 58.587 131.966 92.173 213.988 92.173 164.392 0 298.157-136.288 298.157-303.784 0-79.76-30.077-154.995-84.72-212.074zM725.844 854.775c-90.201 0-169.322-48.262-213.931-120.8-44.666 72.364-123.671 120.481-213.756 120.481-139.333 0-252.331-115.115-252.331-257.117 0-69.086 26.77-131.734 70.275-177.937-0.029-0.059-0.087-0.059-0.087-0.059l2.987-3.017c0.493-0.522 1.015-1.044 1.508-1.566l376.554-367.3c4.061-4.146 9.455-6.207 14.791-6.207s10.703 2.061 14.793 6.207c0 0 310.396 299.896 377.627 368.345 0 0.060 0.028 0.060 0.058 0.087 0.349 0.319 0.696 0.755 1.044 1.073v0.060c45.014 46.404 72.8 110.213 72.8 180.634-0.001 142.001-112.971 257.116-252.332 257.116zM298.621 748.593c-84.168 0-152.646-69.753-152.646-155.517 0-12.877-10.268-23.348-22.913-23.348s-22.884 10.47-22.884 23.348c0 111.49 88.983 202.184 198.442 202.184 12.617 0 22.884-10.47 22.884-23.348s-10.267-23.319-22.883-23.319z" />
<glyph unicode="&#xe928;" glyph-name="mark" d="M512 32c-10.336 0-20.032 4.992-26.016 13.408l-64.896 90.848c-207.744 36.576-357.088 192.768-357.088 375.744 0 211.744 200.96 384 448 384s448-172.256 448-384c0-183.008-149.344-339.168-357.056-375.712l-64.896-90.88c-6.016-8.416-15.712-13.408-26.048-13.408zM512 832c-211.744 0-384-143.552-384-320 0-154.976 132.928-287.328 316.064-314.656 8.576-1.28 16.288-6.016 21.312-13.056l46.624-65.216 46.624 65.248c5.024 7.072 12.704 11.776 21.312 13.056 183.136 27.296 316.064 159.616 316.064 314.624 0 176.448-172.256 320-384 320zM288.032 448c-35.296 0-64 28.704-64 64s28.704 64 64 64 64-28.704 64-64-28.704-64-64-64zM288.064 512c-0.032 0-0.064 0-0.064 0l0.032-32 0.032 32zM736.032 448c-35.296 0-64 28.704-64 64s28.704 64 64 64 64-28.704 64-64-28.704-64-64-64zM736.064 512c-0.032 0-0.064 0-0.064 0l0.032-32 0.032 32zM512.032 448c-35.296 0-64 28.704-64 64s28.704 64 64 64c35.296 0 64-28.704 64-64s-28.704-64-64-64zM512.064 512c0 0-0.064 0-0.064 0l0.032-32 0.032 32z" />
<glyph unicode="&#xe929;" glyph-name="market" d="M883.552 118.771v0h-578.422c0 0 0 0-0.067 0-11.834 0-23.019 5.086-31.364 14.429-8.48 9.314-13.146 21.771-13.146 35.028 0 13.314 4.599 25.543 13.011 34.886 8.48 9.371 19.665 14.629 31.634 14.629v0c0.067 0 0.067 0 0.067 0h572.499c8.791 0 16.364 6.543 18.475 15.914l127.212 563.6c1.38 6.2 0.136 12.814-3.408 18.071-3.705 5.014-9.224 7.986-15.012 7.986h-813.251l-27.414 120.814c-0.527 1.958-2.231 2.915-3.097 4.729-1.244 2.329-2.096 4.229-4.003 5.9-2.11 1.971-4.409 2.485-6.979 3.286-1.569 0.5-2.624 1.957-4.329 1.957h-127.090c-10.455 0-18.868-9.543-18.868-20.971 0-11.657 8.413-20.972 18.867-20.972h112.363l150.813-663.486c-13.011-4.2-25.372-10.771-35.299-21.771-15.513-17.171-24.060-40.114-24.060-64.571 0-24.543 8.602-47.485 24.263-64.743 2.231-2.485 5.193-3.571 7.682-5.742-2.488-2.114-5.585-3.229-7.817-5.687-15.581-17.399-24.128-40.343-24.128-64.828 0-50.229 37.003-91.229 82.446-91.229 0 0 0.135 0 0.203 0 22.085 0 42.778 9.543 58.372 26.743 15.581 17.313 24.128 40.257 24.061 64.485 0 18.715-6.303 35.114-14.985 49.543h443.176c-8.818-14.743-14.932-31.257-14.932-49.543 0-50.229 36.949-91.229 82.446-91.229 0 0 0.135 0 0.271 0 22.018 0 42.792 9.543 58.237 26.743 15.58 17.313 24.128 40.257 24.128 64.485-0.001 50.573-37.004 91.544-82.555 91.544zM862.967 259.657h-542.919l-85.922 380.771h714.912l-86.071-380.771zM980.794 781.386l-22.37-99.014h-733.833l-22.356 99.014h778.559zM349.896 27.229c0.068-13-4.598-25.457-12.943-34.886-8.494-9.286-19.732-14.399-31.621-14.399h-0.271c-24.466 0-44.51 22.143-44.51 49.514 0 13.114 4.599 25.571 13.011 34.886 8.48 9.314 19.719 14.429 31.77 14.429 24.575-0.002 44.564-22.144 44.564-49.544zM915.227-7.657c-8.467-9.286-19.719-14.399-31.485-14.399h-0.325c-24.533 0-44.577 22.143-44.577 49.514 0 13.114 4.599 25.571 13.011 34.886 8.467 9.314 19.801 14.429 31.892 14.429 24.507 0 44.523-22.143 44.523-49.543-0.001-13.001-4.546-25.459-13.039-34.887z" />
<glyph unicode="&#xe92a;" glyph-name="markfill" d="M512 896c-247.040 0-448-172.256-448-384 0-182.976 149.344-339.168 357.056-375.744l64.896-90.848c6.016-8.416 15.712-13.408 26.048-13.408s20.032 4.992 26.048 13.408l64.896 90.88c207.712 36.544 357.056 192.704 357.056 375.712 0 211.744-200.96 384-448 384zM288.032 448c-35.296 0-64 28.704-64 64s28.704 64 64 64 64-28.704 64-64-28.704-64-64-64zM512.032 448c-35.296 0-64 28.704-64 64s28.704 64 64 64c35.296 0 64-28.704 64-64s-28.704-64-64-64zM736.032 448c-35.296 0-64 28.704-64 64s28.704 64 64 64 64-28.704 64-64-28.704-64-64-64z" />
<glyph unicode="&#xe92b;" glyph-name="member" d="M502.649 437.446h19.714c141.521 0 236.521 116.868 236.521 261.021v20.083c0 144.166-94.999 240.95-236.521 240.95h-19.714c-141.522 0-236.545-96.784-236.545-240.949v-20.083c0-144.154 95.022-261.022 236.545-261.022zM305.52 717.051c0 122.82 78.011 202.283 198.581 202.283h16.786c120.57 0 198.569-79.463 198.569-202.283v-17.095c0-122.796-77.999-222.343-198.569-222.343h-16.786c-120.57 0-198.581 99.546-198.581 222.343v17.095zM729.313 397.305h-433.65c-136.082 0-246.39-92.285-246.39-230.902s110.308-230.903 246.39-230.903h433.649c136.094 0 246.426 92.285 246.426 230.902s-110.332 230.903-246.425 230.903zM709.622-24.334h-394.233c-114.332 0-226.7 74.309-226.7 190.736s112.368 190.735 226.7 190.735h394.233c114.309 0 226.688-74.309 226.688-190.735s-112.379-190.736-226.688-190.736z" />
<glyph unicode="&#xe92c;" glyph-name="more" d="M224 352c-52.928 0-96 43.072-96 96s43.072 96 96 96c52.928 0 96-43.072 96-96s-43.072-96-96-96zM512 352c-52.928 0-96 43.072-96 96s43.072 96 96 96c52.928 0 96-43.072 96-96s-43.072-96-96-96zM800 352c-52.928 0-96 43.072-96 96s43.072 96 96 96c52.928 0 96-43.072 96-96s-43.072-96-96-96z" />
<glyph unicode="&#xe92d;" glyph-name="moreandroid" d="M417.696 736c0 52.928 43.072 96 96 96s96-43.072 96-96-43.072-96-96-96-96 43.072-96 96zM417.696 448c0 52.928 43.072 96 96 96s96-43.072 96-96-43.072-96-96-96-96 43.072-96 96zM417.696 160c0 52.928 43.072 96 96 96s96-43.072 96-96-43.072-96-96-96-96 43.072-96 96z" />
<glyph unicode="&#xe92e;" glyph-name="my" d="M501.107 437.954h21.784c156.423 0 261.424 116.864 261.424 261.023v20.068c0 144.16-105.001 240.955-261.423 240.955h-21.784c-156.434 0-261.458-96.795-261.458-240.955v-20.068c0-144.159 105.024-261.023 261.457-261.023zM283.23 717.568c0 122.795 86.228 202.25 219.479 202.25h18.568c133.263 0 219.491-79.455 219.491-202.25v-17.114c0-122.795-86.229-222.341-219.491-222.341h-18.567c-133.251 0-219.479 99.545-219.479 222.341v17.114zM853.68 382.5c-31.546 9.978-65.955 15.272-102.001 15.272h-479.346c-150.4 0-272.333-92.272-272.333-230.885 0-138.615 121.933-230.887 272.333-230.887h479.346c150.365 0 272.321 92.272 272.321 230.887 0 105.363-70.501 183.954-170.32 215.613z" />
<glyph unicode="&#xe92f;" glyph-name="newPageGo" d="M786.355 448.059l-514.398 511.941-34.309-34.086 480.185-477.891-480.185-477.789 34.309-34.234 480.164 477.898z" />
<glyph unicode="&#xe930;" glyph-name="paint" d="M991.776 424.8c0 25.632-9.984 49.76-28.064 67.872l-374.72 375.2c-36.256 36.288-99.488 36.288-135.744 0.032l-135.84-135.712c-37.408-37.408-37.44-98.336-0.032-135.776l374.656-375.136c18.144-18.144 42.24-28.128 67.936-28.128 25.632 0 49.728 9.984 67.84 28.096l35.328 35.296 26.112-26.144c12.512-12.512 12.512-32.768 1.856-43.584l-95.904-82.048c-12.448-12.544-32.736-12.48-45.248 0l-248.736 249.024c-37.44 37.408-98.336 37.472-135.744 0.096l-9.632-9.632-61.44 61.408c-6.24 6.24-14.432 9.376-22.624 9.376s-16.384-3.136-22.656-9.376c0 0 0-0.032-0.032-0.032l-22.56-22.56c0 0 0 0 0 0l-135.872-135.712c-37.408-37.408-37.44-98.304-0.032-135.776l113.12-113.184c18.688-18.688 43.296-28.064 67.872-28.064s49.152 9.344 67.904 28.032l135.808 135.712c0.032 0.032 0.032 0.096 0.064 0.128l22.528 22.496c6.016 6.016 9.376 14.112 9.376 22.624 0 8.48-3.36 16.64-9.344 22.624l-96.896 96.96 9.6 9.6c12.48 12.544 32.768 12.48 45.248-0.032v0.032l3.2-3.2v-0.032l245.568-245.856c18.944-18.912 43.872-28.256 68.544-28.256 24.032 0 47.808 8.896 65.376 26.56l95.904 82.048c37.44 37.408 37.472 98.336 0.032 135.808l-26.112 26.112 55.232 55.168c18.112 18.208 28.128 42.304 28.128 67.936zM362.144 111.456c-0.032-0.032-0.032-0.096-0.064-0.128l-67.776-67.712c-12.48-12.416-32.864-12.448-45.312 0l-113.088 113.184c-12.48 12.48-12.48 32.768 0 45.28l135.84 135.68 158.336-158.432-67.936-67.872zM918.368 402.176l-135.808-135.68c-12.064-12.096-33.152-12.096-45.216 0.032l-374.688 375.104c-12.48 12.512-12.48 32.8 0 45.28l135.84 135.712c6.048 6.048 14.080 9.376 22.624 9.376s16.608-3.328 22.624-9.344l374.688-375.2c6.016-6.016 9.344-14.048 9.344-22.592 0-8.576-3.328-16.608-9.408-22.688zM544.448 773.28c-12.352 12.672-32.64 12.832-45.248 0.48-12.64-12.384-12.832-32.64-0.48-45.248l322.592-329.216c6.24-6.368 14.528-9.6 22.848-9.6 8.096 0 16.16 3.040 22.4 9.152 12.64 12.352 12.8 32.608 0.448 45.248l-322.56 329.184z" />
<glyph unicode="&#xe931;" glyph-name="paintfill" d="M991.776 458.784c0 25.632-9.984 49.76-28.064 67.872l-374.72 375.2c-36.256 36.288-99.488 36.288-135.744 0.032l-135.84-135.744c-37.408-37.408-37.44-98.304-0.064-135.744l374.656-375.136c18.144-18.144 42.24-28.128 67.936-28.128 25.632 0 49.728 9.984 67.84 28.096l35.328 35.296 26.112-26.144c12.512-12.512 12.512-32.768 1.856-43.584l-95.904-82.048c-12.448-12.544-32.736-12.512-45.248 0l-248.736 249.024c-37.44 37.408-98.336 37.504-135.744 0.096l-9.632-9.632-61.408 61.376c-12.512 12.512-32.768 12.48-45.248 0l-19.36-19.328c-0.032-0.032-0.064-0.032-0.096-0.064l-139.040-138.912c-37.408-37.408-37.44-98.304-0.032-135.776l113.12-113.184c18.688-18.688 43.296-28.064 67.872-28.064s49.152 9.344 67.904 28.032l139.008 138.912c0.032 0.032 0.032 0.064 0.064 0.096l19.36 19.328c6.016 6.016 9.376 14.112 9.376 22.624 0 8.48-3.36 16.64-9.344 22.624l-96.896 96.96 9.6 9.6c12.48 12.544 32.768 12.512 45.248-0.032v0.032l3.2-3.2v-0.032l245.568-245.856c18.944-18.912 43.872-28.256 68.544-28.256 24.032 0 47.808 8.896 65.376 26.56l95.904 82.048c37.44 37.408 37.472 98.336 0.032 135.808l-26.112 26.112 55.232 55.168c18.080 18.208 28.096 42.304 28.096 67.968zM866.56 432.8c-6.24-6.080-14.304-9.152-22.4-9.152-8.32 0-16.608 3.2-22.848 9.6l-322.592 329.216c-12.352 12.64-12.16 32.864 0.48 45.248 12.608 12.352 32.896 12.192 45.248-0.48l322.56-329.184c12.352-12.64 12.192-32.864-0.448-45.248z" />
<glyph unicode="&#xe932;" glyph-name="pd_clock" d="M86.417 390.441c2.416 17.075 4.294 34.248 7.344 51.209 12.448 69.251 40.863 131.117 86.59 184.827 1.273 1.495 2.364 3.148 4.214 5.635-28.197 27.845-56.342 55.638-83.758 82.713 20.089 20.085 39.506 39.499 59.541 59.529 26.799-27.121 54.555-55.213 82.852-83.851 77.936 66.856 167.837 97.966 268.729 98.062 100.943 0.098 190.809-31.136 268.345-97.385 28.423 28.478 56.322 56.433 83.957 84.118 20.080-20.21 39.46-39.719 59.084-59.471-27.56-27.481-55.562-55.4-83.832-83.591 7.126-9.009 13.745-16.841 19.786-25.096 59.955-81.912 86.13-174.237 76.294-274.564-18.025-183.865-115.827-310.503-289.241-371.651-139.069-49.036-271.75-24.644-390.161 63.664-92.165 68.734-146.228 161.98-164.818 275.557-1.975 12.059-3.299 24.223-4.926 36.336 0 17.987 0 35.973 0 53.959zM171.605 363.77c-1.072-180.915 144.223-334.896 329.006-340.907 194.751-6.336 349.842 150.588 352.034 335.99 2.202 186.285-148.89 342.698-334.124 345.223-194.72 2.656-347.677-155.681-346.916-340.306zM637.986 960c0.574-2.529 1.636-5.054 1.647-7.586 0.123-25.564 0.076-51.128 0.076-77.768-28.228 0-55.976 0-84.972 0 0-14.452 0-27.9 0-42.086-28.634 0-56.014 0-84.624 0 0 13.503 0 26.941 0 41.403-28.937 0-56.678 0-85.664 0 0 25.52-0.075 49.997 0.077 74.474 0.024 3.858 1.079 7.709 1.656 11.563 83.936 0 167.871 0 251.804 0zM710.426 502.043c-35.686-35.653-72.291-72.436-109.214-108.892-5.444-5.376-7.257-9.729-5.517-17.884 9.41-44.045-27.743-91.992-73.857-96.493-44.173-4.312-84.444 24.749-93.060 67.153-8.816 43.386 16.559 86.645 59.619 98.414 12.613 3.449 26.76 1.090 40.169 1.94 3.654 0.23 8.151 1.47 10.62 3.909 35.034 34.603 69.801 69.475 104.58 104.333 2.567 2.572 4.739 5.541 6.787 7.963 20.502-20.696 40.016-40.398 59.873-60.443z" />
<glyph unicode="&#xe933;" glyph-name="pd_crown" d="M1024 659.811c-1.623-5.718-2.924-11.552-4.92-17.135-15.379-43.022-45.27-68.711-90.86-75.093-7.603-1.063-11.386-2.641-12.976-11.952-29.369-172.060-67.318-342.243-113.478-510.584-2.37-8.644-5.151-17.182-7.899-25.716-6.899-21.428-16.164-28.526-38.666-28.595-110.312-0.332-220.621-0.602-330.934-0.688-50.657-0.043-101.311 0.41-151.97 0.59-26.685 0.098-35.059 4.901-41.856 30.484-21.919 82.479-44.657 164.807-63.685 247.969-20 87.416-36.135 175.717-53.828 263.659-2.156 10.723-3.492 21.615-5.37 33.441-36.932 2.162-67.188 17.359-88.549 48.081-14.787 21.271-20.355 45.199-18.739 70.969 2.949 47.108 42.079 89.994 89.705 98.122 49.955 8.526 98.981-17.924 119.006-64.206 19.283-44.563 8.96-102.268-45.062-138.123 8.628-17.131 16.678-34.879 26.237-51.777 31.733-56.092 70.008-106.961 120.833-147.455 5.724-4.562 11.684-8.856 17.771-12.92 17.254-11.519 33.195-9.208 43.403 8.683 16.281 28.54 32.588 57.286 45.821 87.299 31.793 72.119 51.561 147.88 63.798 226.682-34.664 11.735-59.626 34-72.143 68.918-8.38 23.376-8.45 47.084-0.826 70.555 15.819 48.702 62.401 78.774 114.65 74.541 45.956-3.724 88.020-42.519 96.241-88.346 9.222-51.404-18.289-106.549-78.386-126.136 6.202-29.226 11.619-58.876 18.86-88.076 17.99-72.531 42.754-142.559 80.285-207.581 3.491-6.048 7.122-12.050 11.135-17.758 12.448-17.701 26.45-20.42 44.458-8.358 27.327 18.303 50.906 40.831 72.219 65.746 36.145 42.257 65.964 88.555 88.32 139.555 0.918 2.098 1.729 4.242 2.797 6.875-3.83 2.853-7.544 5.548-11.185 8.341-38.334 29.407-52.418 81.436-34.26 126.488 18.283 45.364 64.559 73.375 112.124 67.864 49.401-5.722 86.096-39.308 96.044-87.838 0.32-1.572 1.242-3.021 1.883-4.527 0.002-10.669 0.002-21.331 0.002-31.998z" />
<glyph unicode="&#xe934;" glyph-name="pd_question" d="M512.016 960c-282.782 0-512.016-229.234-512.016-511.984 0-282.848 229.234-512.016 512.016-512.016 282.816 0 511.984 229.168 511.984 512.016 0 282.75-229.168 511.984-511.984 511.984zM512.016 31.965c-229.754 0-416.020 186.328-416.020 416.051 0 229.758 186.266 415.957 416.020 415.957 229.82 0 416.020-186.199 416.020-415.957-0.001-229.723-186.2-416.051-416.020-416.051zM487.863 145.246h81.543v79.688h-81.543v-79.688zM544.926 722.758c-108.691 0-172.105-55.988-190.203-167.773h67.938c19.922 78.777 60.676 118.23 122.266 118.23 59.801-3.645 91.441-36.656 95.086-98.961 3.645-40.363-20.832-79.754-73.34-118.293-50.75-34.832-75.195-77.898-73.375-129.203v-30.336h70.641v24.867c-1.824 40.234 16.309 74.188 54.328 101.664 70.703 45.832 103.258 97.199 97.918 154.035-7.294 91.668-64.326 140.239-171.259 145.77z" />
<glyph unicode="&#xe935;" glyph-name="pd_user" d="M68.784-64c0 39.534-1.058 78.162 0.372 116.697 0.956 25.789 15.067 46.751 32.034 65.437 34.896 38.427 78.988 63.359 125.711 83.984 37.191 16.419 75.068 31.283 112.282 47.653 11.371 5 22.287 11.76 32.104 19.395 13.861 10.782 21.35 24.916 20.068 43.704-1.283 18.809 0.077 37.785-0.563 56.657-0.144 4.247-2.709 9.658-5.964 12.364-37.494 31.173-63.126 70.254-79.233 116.001-1.733 4.921-4.398 10.054-8.032 13.683-33.545 33.493-39.182 85.707-14.115 126.225 3.764 6.083 5.993 14.872 5.007 21.857-9.621 68.18 0.197 132.568 38.486 190.563 48.652 73.696 116.797 115.259 206.413 109.197 94.644-6.402 158.53-60.087 198.057-144.261 23.218-49.445 26.756-101.604 19.251-155.159-0.984-7.042 0.852-15.878 4.553-21.951 23.875-39.17 18.828-87.293-14.699-120.039-8.509-8.309-13.642-17.273-17.055-28.341-14.49-46.989-39.829-85.716-84.609-109.547-3.019-1.609-5.559-7.052-5.637-10.768-0.507-23.503-0.192-47.023-0.271-70.537-0.050-14.563 7.233-25.191 19.246-31.746 16.516-9.013 33.592-17.105 50.846-24.635 46.856-20.455 94.616-38.99 140.639-61.147 23.119-11.132 44.646-26.818 64.396-43.415 32.565-27.363 48.231-63.539 47.498-106.621-0.533-31.438-0.103-62.895-0.103-95.251-295.579 0.001-590.482 0.001-886.682 0.001z" />
<glyph unicode="&#xe936;" glyph-name="personalCare" d="M743.111-64h-462.222c-76.583 0-138.666 62.5-138.666 139.639v465.444c0 77.125 62.083 139.64 138.666 139.64h46.194c0 0 0 20.833 0 46.555v186.166c0 25.708 20.723 46.556 46.25 46.556h277.334c25.527 0 46.222-20.848 46.222-46.556v-186.167c0-25.722 0-46.555 0-46.555h46.223c76.611 0 138.666-62.515 138.666-139.64v-465.444c-0.001-77.138-62.055-139.638-138.667-139.638zM650.667 913.444h-277.334v-46.542h277.334v46.542zM650.667 820.361h-277.334v-149.986h277.334v149.986zM743.111 634.167h-462.222c-51.056 0-92.444-41.667-92.444-93.084h647.111c0 51.417-41.389 93.084-92.445 93.084zM835.556 494.527h-647.112v-372.36h647.111v372.36zM188.444 75.639c0-51.416 41.389-93.111 92.444-93.111h462.223c51.056 0 92.444 41.695 92.444 93.111h-647.111z" />
<glyph unicode="&#xe937;" glyph-name="phone" d="M996.79 47.167v0c-14.536-14.661-35.794-35.981-44.015-44.484l-7.284-7.347-12.191-12.254c-59.146-59.771-287.069-129.139-657.886 246.617-351.936 356.468-284.287 561.9-236.27 621.686 29.229 30.058 65.367 66.227 80.56 81.419l0.063-0.016c36.419 36.778 95.658 36.638 132.296-0.391l117.916-119.057c36.638-36.966 36.793-96.799 0.375-133.625v0c-17.132-17.303-58.646-59.224-58.646-59.224l-21.977-22.164c-35.293-36.34 2.032-84.326 41.827-132.921 1.125-2.579 177.063-175.874 178.281-176.249 85.438-68.867 124.481-106.787 158.212-72.088l73.119 73.839c36.419 36.763 100.691 45.891 137.36 8.939l117.885-119.042c36.638-37.042 36.794-96.875 0.375-133.638zM303.892 673.401c4.001 4.001 8.565 8.628 15.505 15.662 42.391 42.859 46.893 68.946 12.505 103.708l-87.688 88.547c-38.045 38.388-64.054 53.394-116.979-0.047-5.033-5.049-9.91-9.925-14.662-14.662l191.319-193.208zM642.886 155.11c-42.953-6.064-140.581 73.744-202.008 133.891-46.11 45.86-198.851 185.784-213.043 272.548-4.47 25.524 15.505 51.002 25.259 60.521 9.065 9.285 15.755 16.068 21.476 21.852l-190.005 191.911c-17.787-21.992-31.323-46.219-38.201-81.419-21.194-99.988 50.268-295.072 270.877-507.834 0 0 165.4-164.495 308.264-226.923 71.899-27.76 169.465-72.183 272.563-5.347l-185.22 187.067c-25.103-26.071-50.58-48.611-69.962-46.267zM931.174 187.56l-58.458 59.053c-49.893 50.393-83.936 33.293-128.106-11.285-1.095-1.156-2.251-2.407-3.346-3.657l190.035-191.85c5.408 4.782 10.785 9.473 16.193 14.941 51.237 51.738 35.887 80.092-16.318 132.798zM756.926 555.875l-150.178 153.070v-367.613c0-11.504-9.159-20.883-20.507-20.883-11.317 0-20.478 9.379-20.478 20.883v367.144l-153.427-156.383c-8.003-8.174-20.976-8.174-28.948 0-8.034 8.112-8.034 21.336 0 29.479l188.284 191.926c0 0.047 0.063 0.047 0.063 0.047 0 0.016 0 0.063 0.063 0.094 3.939 4.048 9.129 6.033 14.286 5.955 5.252 0.078 10.535-1.985 14.537-6.096 0.25-0.25 0.313-0.594 0.563-0.813l184.189-187.769c7.877-8.019 7.877-20.992 0-29.042-7.847-8.001-20.602-8.001-28.447 0.001z" />
<glyph unicode="&#xe938;" glyph-name="pic" d="M256 576c0-35.346 28.654-64 64-64s64 28.654 64 64c0 35.346-28.654 64-64 64s-64-28.654-64-64zM842.688 64h-661.376c-64.672 0-117.312 52.64-117.312 117.312v533.376c0 64.672 52.64 117.312 117.312 117.312h661.376c64.672 0 117.312-52.64 117.312-117.312v-533.376c0-64.672-52.64-117.312-117.312-117.312zM181.312 768c-29.376 0-53.312-23.936-53.312-53.312v-533.376c0-29.408 23.936-53.312 53.312-53.312h661.376c29.408 0 53.312 23.904 53.312 53.312v533.376c0 29.376-23.904 53.312-53.312 53.312h-661.376zM224 191.008c-3.136 0-6.336 0.48-9.504 1.472-16.864 5.248-26.304 23.136-21.056 40 2.368 7.616 60.16 186.848 183.168 183.648 35.008-0.864 64.32-9.696 92.672-18.24 36.416-10.944 67.904-20.384 109.632-13.728 20.448 3.296 28.896 23.84 43.328 69.984 19.040 60.832 47.808 152.736 174.656 152.736 17.696 0 32-14.336 32-32s-14.304-32-32-32c-75.968 0-92.672-40.992-113.6-107.872-14.496-46.4-32.608-104.16-94.272-114.016-56.288-8.96-99.776 4.128-138.208 15.616-25.408 7.648-49.44 14.88-75.872 15.52-0.48 0.032-0.96 0.032-1.44 0.032-62.016 0-106.88-99.872-119.008-138.656-4.224-13.696-16.864-22.496-30.496-22.496z" />
<glyph unicode="&#xe939;" glyph-name="picfill" d="M842.688 832h-661.376c-64.672 0-117.312-52.64-117.312-117.312v-533.376c0-64.672 52.64-117.312 117.312-117.312h661.376c64.672 0 117.312 52.64 117.312 117.312v533.376c0 64.672-52.64 117.312-117.312 117.312zM288 672c35.36 0 64-28.64 64-64s-28.64-64-64-64c-35.328 0-64 28.64-64 64s28.672 64 64 64zM832 224c0-17.696-14.304-31.488-32-31.488l-574.080-0.512c-0.128 0-0.224 0-0.352 0-10.080 0-19.616 4.288-25.664 12.384-6.112 8.192-7.936 18.56-4.896 28.352 2.304 7.488 58.272 183.552 180.064 183.552 38.080-0.896 67.424-9.824 95.776-18.336 35.712-10.72 70.528-19.936 109.664-13.76 20.448 3.296 28.896 23.808 43.328 69.952 19.040 60.8 47.808 152.736 174.656 152.736 17.536 0 31.776-14.080 32-31.616l1.504-126.88v-224.384z" />
<glyph unicode="&#xe93a;" glyph-name="plane" d="M1010.822 128.564l-125.49-105.308c-6.71-5.59-15.086-8.616-23.756-8.616-1.469 0-2.938 0.077-4.408 0.257-10.139 1.205-19.299 6.564-25.372 14.82l-210.178 286.437c-67.938-46.539-141.568-90.437-212.432-126.77l28.654-140.692c2.473-12.18-1.335-24.743-10.164-33.538l-68.745-68.385c-6.968-6.949-16.335-10.77-26.046-10.77-1.481 0-2.927 0.077-4.408 0.257-11.241 1.358-21.221 7.769-27.099 17.41l-107.524 176.154-176.174 107.59c-9.649 5.897-16.078 15.872-17.425 27.128-1.322 11.232 2.523 22.487 10.507 30.462l68.488 68.743c7.004 6.975 16.458 10.821 26.168 10.821 2.461 0 4.922-0.257 7.384-0.744l141.017-28.718c36.136 70.743 79.986 144.423 126.481 212.449l-286.417 210.244c-8.229 6.039-13.592 15.192-14.817 25.333-1.212 10.167 1.788 20.359 8.364 28.128l105.113 125.5c7.151 8.552 17.597 13.244 28.323 13.244 4.359 0 8.743-0.782 12.992-2.397l369.734-139c92.379 79.833 192.546 126.948 271.259 126.948 4.506 0 8.963-0.141 13.322-0.436 1.127 0.026 2.254 0.064 3.38 0.064 29.144 0 58.875-12.975 81.554-35.641 0.245-0.256 0.49-0.526 0.734-0.782 20.426-20.795 32.181-48.372 35.021-82.025 6.857-79.987-41.192-188.513-126.272-287.154l139.057-369.705c5.486-14.667 1.175-31.205-10.825-41.308zM580.033 777.975l-356.313 134.115-94.583-112.897 273.842-201.026c44.879 61.897 84.798 108.218 132.42 157.039l22.348 22.744c2.694 2.756 19.299-2.615 22.238-0.013-0.98-0.949-1.861-1.833 0.098 0.013 2.056 2.076 0.979 1.037-0.050 0.025zM962.918 822.833c-1.959 22.82-9.453 40.936-22.335 53.872-14.891 14.936-34.924 23.115-52.312 22.18-5.29 0.372-9.307 0.525-13.421 0.525-71.268 0-169.769-49.833-257.151-130.039-7.543-6.949-15.037-14.025-22.482-21.461-2.693-2.654-5.29-5.359-7.886-8.064l-2.646-2.731c-47.609-48.782-94.582-105.128-139.596-167.449l-6.368-9.038c-58.421-82.013-113.905-174.858-156.224-261.474-1.861-3.744-5.951-5.872-10.139-4.975l-163.916 33.385-56.696-56.872 173.785-106.128c1.249-0.744 2.278-1.795 3.062-3.077l106.081-173.744 56.929 56.642-33.283 163.538c-0.833 4.103 1.2 8.257 4.972 10.128 86.746 42.514 179.565 98.104 261.363 156.564l9.013 6.385c62.060 44.82 118.388 91.872 167.467 139.718 3.674 3.551 7.249 7.013 10.775 10.5 7.445 7.385 14.548 14.936 21.454 22.462 84.737 92.41 135.579 198.064 129.554 269.153zM840.367 520.769l-3.624 9.692c-1.616-1.653 0.637-5.474 3.624-9.692zM846.833 503.59c-4.114-3.577-11.363-8.551-14.498-11.846-47.61-50.321-99.628-101.103-162.813-146.128l-26.499 19.359 220.17-300.025 112.902 94.769-129.262 343.871zM775.32 742.128c-4.31 4.384-9.306 14.667-41.928 21.782l0.735 30.654c32.278-7.103 68.23-22.884 76.41-31.244 0.734-0.577 0.734-0.756 1.273-1.513 7.249-7.551 22.679-44.218 29.486-76.628l-44.964-8.411c-6.904 32.796-16.603 60.681-21.012 65.36zM579.984 777.936c0 0.013 0 0.025 0.049 0.039l0.049-0.026c0-0.013-0.098 0-0.098-0.013z" />
<glyph unicode="&#xe93b;" glyph-name="position" d="M538.080-53.16c-6.76-6.921-16.46-10.84-26.68-10.84-10.76 0.238-19.98 4-26.74 10.919-15.599 16-381.621 394.841-381.621 644.521 0.001 203.241 183.441 368.56 408.961 368.56 224.48 0 407.92-165.28 408.96-368.4 1.28-249.84-367.199-628.76-382.88-644.76zM512 896.001c-186.28 0-337.82-136.642-337.82-304.561 0-189.4 253.3-482.002 337.301-573.841 84.44 91.76 339.319 384.521 338.36 573.721-0.839 168.001-152.4 304.681-337.841 304.681zM369.76 592c0 70.56 63.821 128 142.241 128 78.44 0 142.241-57.44 142.241-128 0-70.561-63.801-128-142.241-128-78.42 0-142.241 57.44-142.241 128zM583.121 592c0 35.279-31.88 64-71.121 64-39.22 0-71.121-28.721-71.121-64 0-35.281 31.9-64 71.121-64 39.241 0 71.121 28.72 71.121 64z" />
<glyph unicode="&#xe93c;" glyph-name="pulldown" d="M512 0c-247.040 0-448 200.96-448 448s200.96 448 448 448 448-200.96 448-448-200.96-448-448-448zM512 832c-211.744 0-384-172.256-384-384s172.256-384 384-384c211.744 0 384 172.256 384 384s-172.256 384-384 384zM694.56 437.856c-12.544 12.608-33.376 12.64-45.952 0.064l-104.608-103.904v306.656c0 17.76-14.208 32.16-32 32.16-17.76 0-32-14.4-32-32.16v-308.32l-105.216 106.688c-12.48 12.608-32.704 12.736-45.312 0.256-12.64-12.512-12.672-32.896-0.192-45.504l159.36-161.056c6.272-6.336 14.592-9.568 22.88-9.568 8.16 0 16.384 3.168 22.624 9.312 0.032 0.064 0.032 0.064 0.064 0.128 0.032 0 0.064 0 0.096 0.064l160.192 159.68c12.576 12.544 12.608 32.928 0.064 45.504z" />
<glyph unicode="&#xe93d;" glyph-name="pullleft" d="M512 0c-247.040 0-448 200.96-448 448s200.96 448 448 448 448-200.96 448-448-200.96-448-448-448zM512 832c-211.744 0-384-172.256-384-384s172.256-384 384-384c211.744 0 384 172.256 384 384s-172.256 384-384 384zM290.368 435.648c0.032-0.128 0.192-0.256 0.256-0.384 1.536-3.616 3.648-7.072 6.592-10.048 0.032-0.032 0.064-0.032 0.096-0.064s0.032-0.064 0.064-0.096l158.912-159.36c12.48-12.512 32.704-12.576 45.248-0.064 12.512 12.48 12.544 32.704 0.064 45.248l-103.328 103.616h305.056c17.664 0 32 14.336 32 32s-14.336 32-32 32h-306.752l106.112 104.96c12.576 12.448 12.672 32.672 0.256 45.248-6.24 6.336-14.496 9.504-22.752 9.504-8.128 0-16.256-3.104-22.496-9.248l-160.256-158.496c-9.44-9.376-11.808-23.168-7.072-34.816z" />
<glyph unicode="&#xe93e;" glyph-name="pullright" d="M512 0c-247.040 0-448 200.96-448 448s200.96 448 448 448 448-200.96 448-448-200.96-448-448-448zM512 832c-211.744 0-384-172.256-384-384s172.256-384 384-384c211.744 0 384 172.256 384 384s-172.256 384-384 384zM732.96 458.848c-0.032 0.128-0.192 0.256-0.256 0.384-1.536 3.616-3.648 7.072-6.592 10.048-0.032 0.032-0.064 0.032-0.096 0.064s-0.032 0.064-0.064 0.096l-158.912 159.36c-12.48 12.48-32.704 12.576-45.248 0.064-12.512-12.48-12.544-32.736-0.064-45.248l103.328-103.616h-305.056c-17.664 0-32-14.336-32-32s14.336-32 32-32h306.752l-106.112-104.96c-12.576-12.448-12.672-32.672-0.256-45.248 6.24-6.336 14.496-9.504 22.752-9.504 8.128 0 16.256 3.104 22.496 9.248l160.256 158.496c9.44 9.376 11.84 23.2 7.072 34.816z" />
<glyph unicode="&#xe93f;" glyph-name="pullup" d="M512 0c-247.040 0-448 200.96-448 448s200.96 448 448 448 448-200.96 448-448-200.96-448-448-448zM512 832c-211.744 0-384-172.256-384-384s172.256-384 384-384c211.744 0 384 172.256 384 384s-172.256 384-384 384zM694.464 501.632l-158.496 160.256c-9.344 9.472-23.168 11.84-34.784 7.136-0.736-0.288-1.312-0.992-2.016-1.344-2.976-1.472-5.952-3.072-8.448-5.536-0.032-0.032-0.032-0.064-0.064-0.096s-0.064-0.032-0.096-0.064l-159.36-158.912c-12.512-12.48-12.544-32.736-0.064-45.248 6.24-6.272 14.464-9.408 22.656-9.408 8.16 0 16.352 3.104 22.592 9.344l103.616 103.296v-305.056c0-17.696 14.336-32 32-32s32 14.304 32 32v306.752l104.96-106.112c6.24-6.336 14.496-9.504 22.752-9.504 8.128 0 16.256 3.072 22.496 9.248 12.576 12.416 12.704 32.672 0.256 45.248z" />
<glyph unicode="&#xe940;" glyph-name="qcode" d="M1023.295 769.389c0-13.158-10.637-23.815-23.797-23.815-13.138 0-23.775 10.657-23.775 23.815 0 0.227 0.137 0.432 0.137 0.659v94.578c0 26.292-21.297 47.63-47.572 47.63h-38.163v0.136h-32.048c-0.204-0.022-0.409-0.136-0.659-0.136-13.114 0-23.774 10.635-23.774 23.792s10.66 23.815 23.774 23.815v0 0.137h78.598v-0.136h16.070c39.412 0 71.347-31.973 71.347-71.445v-119.029h-0.138v-0.001zM880.487 531.080h-47.777v215.221h47.777v-215.221zM761.386 746.301h23.979v-215.221h-23.979v215.221zM666.354 746.301h23.866v-215.221h-23.866v215.221zM571.119 746.301h47.776v-215.221h-47.776v215.221zM405.082 746.301h71.438v-215.221h-71.438v215.221zM333.416 746.301h23.889v-215.221h-23.889v215.221zM238.18 746.301h23.979v-215.221h-23.979v215.221zM168.242 912.256c-0.25 0-0.432 0.114-0.682 0.136h-9.706v-0.136h-62.21c-26.298 0-47.573-21.338-47.573-47.63v-94.579c0-0.227 0.114-0.432 0.114-0.659 0-13.158-10.637-23.815-23.775-23.815s-23.775 10.657-23.775 23.815h-0.157v119.030c0 39.472 31.957 71.445 71.37 71.445h17.797v0.137h78.598v-0.136c13.138 0 23.775-10.658 23.775-23.815-0.001-13.158-10.638-23.793-23.776-23.793zM190.835 746.301v-215.221h-47.777v215.221h47.777zM23.457 483.177h977.064c12.956 0 23.479-10.521 23.479-23.497 0-12.975-10.523-23.497-23.479-23.497h-977.064c-12.956 0.001-23.457 10.522-23.457 23.497 0 12.976 10.501 23.497 23.457 23.497zM143.058 388.008h47.777v-238.423h-47.777v238.423zM0.636 126.497c0 13.135 10.638 23.815 23.775 23.815 13.138 0 23.775-10.681 23.775-23.815 0-0.227-0.114-0.432-0.114-0.659v-94.601c0-24.224 18.161-44.017 41.572-46.994v0.659h78.598v-0.136c13.138 0 23.775-10.658 23.775-23.815s-10.637-23.792-23.775-23.792c-0.25 0-0.432 0.113-0.682 0.136h-9.706v-1.295h-86.007c-39.413 0-71.37 31.996-71.37 71.445v119.052h0.159zM262.16 245.641h-23.98v142.367h23.979v-142.367zM286.094 150.494h-47.504v48.312h47.504v-48.312zM357.305 245.641h-23.889v142.367h23.889v-142.367zM381.216 150.494h-47.504v48.312h47.504v-48.312zM476.52 245.641h-71.438v142.367h71.438v-142.367zM476.338 150.494h-47.504v48.312h47.504v-48.312zM571.119 388.008h47.776v-142.367h-47.776v142.367zM571.188 150.494h-47.528v48.312h47.527v-48.312zM690.221 388.008v-142.367h-23.866v142.367h23.866zM690.356 150.494h-47.481v48.312h47.481v-48.312zM785.365 388.008v-142.367h-23.979v142.367h23.979zM785.502 150.494h-47.505v48.312h47.505v-48.312zM880.487 149.585h-47.777v238.423h47.777v-238.423zM857.417-15.233v0 0.136h78.598v-0.5c22.57 3.704 39.845 23.202 39.845 46.835v94.601c0 0.228-0.137 0.433-0.137 0.659 0 13.135 10.638 23.815 23.775 23.815 13.16 0 23.797-10.681 23.797-23.815h0.137v-119.052c0-39.449-31.935-71.445-71.347-71.445h-61.961v1.295h-32.048c-0.204-0.022-0.409-0.136-0.659-0.136-13.114 0-23.774 10.635-23.774 23.792s10.66 23.815 23.774 23.815z" />
<glyph unicode="&#xe941;" glyph-name="question2" d="M464 175.648c0-26.51 21.49-48 48-48s48 21.49 48 48c0 26.51-21.49 48-48 48s-48-21.49-48-48zM512 0c-247.040 0-448 200.96-448 448s200.96 448 448 448 448-200.96 448-448-200.96-448-448-448zM512 831.712c-211.584 0-383.712-172.128-383.712-383.712 0-211.552 172.128-383.712 383.712-383.712 211.552 0 383.712 172.16 383.712 383.712 0 211.584-172.16 383.712-383.712 383.712zM512 286.304c-17.664 0-32 14.336-32 32v54.112c0 52.352 40 92.352 75.328 127.648 25.888 25.92 52.672 52.672 52.672 74.016 0 53.344-43.072 96.736-96 96.736-53.824 0-96-41.536-96-94.56 0-17.664-14.336-32-32-32s-32 14.336-32 32c0 87.424 71.776 158.56 160 158.56s160-72.096 160-160.736c0-47.904-36.32-84.192-71.424-119.296-27.84-27.776-56.576-56.512-56.576-82.336v-54.112c0-17.664-14.336-32.032-32-32.032z" />
<glyph unicode="&#xe942;" glyph-name="question" d="M512.014-64c-282.791 0-512.014 229.25-512.014 512 0 282.777 229.223 512 512.014 512s511.986-229.223 511.986-512c0-282.75-229.194-512-511.986-512zM512.014 919.027c-259.75 0-471.041-211.277-471.041-471.027 0-259.723 211.291-471.027 471.041-471.027 259.736 0 471.069 211.305 471.069 471.027 0 259.75-211.333 471.027-471.069 471.027zM593.417 461.944c-54.834-54.806-53.444-53.556-56.14-116.333h-45.75c2.75 69.25 18.028 93.014 72.5 143.583 26.5 25.083 46.584 55.194 46.584 92.473 0 57.333-46.584 96.764-102.5 96.764-78.139 0-116.834-54.194-115.417-128.014h-45.152c0.735 101.764 58.777 166 162.735 166 79.528 0 145.473-49.444 145.473-132.584 0-53.041-25.806-87.472-62.333-121.889zM512.014 263.667c22.625 0 40.959-18.334 40.959-40.944 0-22.64-18.334-40.973-40.959-40.973-22.597 0-40.958 18.333-40.958 40.973 0 22.61 18.361 40.944 40.958 40.944z" />
<glyph unicode="&#xe943;" glyph-name="questionfill" d="M512 896c-247.040 0-448-200.96-448-448s200.96-448 448-448 448 200.96 448 448-200.96 448-448 448zM512 127.648c-26.496 0-48 21.504-48 48s21.504 48 48 48 48-21.504 48-48-21.504-48-48-48zM600.576 454.816c-27.84-27.808-56.576-56.544-56.576-82.368v-54.112c0-17.664-14.336-32-32-32s-32 14.336-32 32v54.112c0 52.352 40 92.352 75.328 127.648 25.888 25.888 52.672 52.64 52.672 73.984 0 53.344-43.072 96.736-96 96.736-53.824 0-96-41.536-96-94.56 0-17.664-14.336-32-32-32s-32 14.336-32 32c0 87.424 71.776 158.56 160 158.56s160-72.096 160-160.736c0-47.872-36.32-84.16-71.424-119.264z" />
<glyph unicode="&#xe944;" glyph-name="radiobox" d="M512 894.016c-245.92 0-446.016-200.096-446.016-446.016 0-245.952 200.064-446.016 446.016-446.016s446.016 200.064 446.016 446.016c0 245.92-200.064 446.016-446.016 446.016zM512 65.984c-210.656 0-382.016 171.392-382.016 382.016 0 210.656 171.36 382.016 382.016 382.016 210.624 0 382.016-171.36 382.016-382.016 0-210.624-171.392-382.016-382.016-382.016zM512 608c-88.224 0-160-71.776-160-160s71.776-160 160-160 160 71.776 160 160-71.776 160-160 160z" />
<glyph unicode="&#xe945;" glyph-name="radioboxfill" d="M512 894.016c-245.92 0-446.016-200.096-446.016-446.016 0-245.952 200.064-446.016 446.016-446.016s446.016 200.064 446.016 446.016c0 245.92-200.064 446.016-446.016 446.016zM512 288c-88.224 0-160 71.776-160 160s71.776 160 160 160 160-71.776 160-160-71.776-160-160-160z" />
<glyph unicode="&#xe946;" glyph-name="refresh" d="M939.456 703.776c-16.672 5.984-34.976-2.72-40.896-19.36l-24.768-69.344c-28.992 65.312-74.784 122.72-133.088 165.92-185.376 137.28-449.408 99.776-588.384-83.648-67.264-88.768-95.616-198.176-79.84-308.032 15.84-110.304 74.208-207.776 164.352-274.496 75.424-55.808 163.808-82.752 251.456-82.752 128.032 0 254.56 57.44 336.992 166.272 36.48 48.128 61.472 102.080 74.208 160.416 3.776 17.248-7.136 34.304-24.416 38.080-17.216 3.712-34.304-7.104-38.080-24.416-10.784-49.184-31.872-94.752-62.72-135.456-117.888-155.52-341.92-187.232-499.392-70.72-76.288 56.48-125.664 138.912-139.072 232.16-13.344 92.8 10.656 185.248 67.488 260.288 117.856 155.584 341.792 187.424 499.328 70.848 57.024-42.24 99.84-100.608 122.976-166.624l-109.984 42.944c-16.416 6.368-35.008-1.696-41.44-18.176s1.728-35.008 18.176-41.44l161.856-63.2c3.808-1.472 7.744-2.208 11.616-2.208 0.544 0 1.024 0.192 1.568 0.224 1.216-0.128 2.432-0.64 3.648-0.64 13.12 0 25.472 8.16 30.112 21.248l57.632 161.184c5.984 16.672-2.688 35.008-19.328 40.928z" />
<glyph unicode="&#xe947;" glyph-name="refresharrow" d="M822.624 438.624c-12.512 12.512-32.736 12.512-45.248 0l-233.376-233.376v562.752c0 17.664-14.336 32-32 32s-32-14.336-32-32v-562.752l-233.376 233.376c-12.512 12.512-32.736 12.512-45.248 0s-12.512-32.736 0-45.248l288-287.968c2.944-2.976 6.496-5.312 10.432-6.944 3.872-1.632 8.032-2.464 12.192-2.464s8.32 0.832 12.224 2.464c3.936 1.632 7.456 3.968 10.432 6.944l288 287.968c12.48 12.512 12.48 32.736-0.032 45.248z" />
<glyph unicode="&#xe948;" glyph-name="right2" d="M761.056 427.872c0.512 0.992 1.344 1.824 1.792 2.848 8.8 18.304 5.92 40.704-9.664 55.424l-353.248 334.112c-19.264 18.208-49.632 17.344-67.872-1.888-18.208-19.264-17.376-49.632 1.888-67.872l316.96-299.84-315.712-304.288c-19.072-18.4-19.648-48.768-1.248-67.872 9.408-9.792 21.984-14.688 34.56-14.688 12 0 24 4.48 33.312 13.44l350.048 337.376c0.672 0.672 0.928 1.6 1.6 2.304 0.512 0.48 1.056 0.832 1.568 1.344 2.72 2.848 4.16 6.336 6.016 9.6z" />
<glyph unicode="&#xe949;" glyph-name="right" d="M926.73 806.455l-613.8-595.236-215.008 215.033c-22.402 22.402-58.703 22.402-81.107 0-22.402-22.43-22.402-58.73 0-81.135l254.939-254.937c11.201-11.201 25.877-16.803 40.553-16.803 14.365 0 28.781 5.393 39.932 16.18l654.355 634.52c22.715 22.092 23.285 58.367 1.244 81.107-22.143 22.765-58.393 23.285-81.108 1.271z" />
<glyph unicode="&#xe94a;" glyph-name="round" d="M512 0c-247.040 0-448 200.96-448 448s200.96 448 448 448 448-200.96 448-448-200.96-448-448-448zM512 832c-211.744 0-384-172.256-384-384s172.256-384 384-384c211.744 0 384 172.256 384 384s-172.256 384-384 384z" />
<glyph unicode="&#xe94b;" glyph-name="roundadd" d="M512 1.984c-119.648 0-232.128 46.368-316.736 130.56-84.64 84.256-131.264 196.256-131.264 315.456 0 119.168 46.624 231.2 131.232 315.424 84.608 84.192 197.088 130.56 316.736 130.56s232.128-46.368 316.704-130.56c84.672-84.224 131.264-196.256 131.264-315.392 0.032-119.2-46.592-231.232-131.264-315.456-84.544-84.192-197.024-130.592-316.672-130.592zM512 830.016c-102.624 0-199.072-39.744-271.584-111.936-72.48-72.128-112.416-168.064-112.416-270.080s39.904-197.952 112.384-270.048c72.512-72.192 168.96-111.936 271.584-111.936 102.592 0 199.072 39.744 271.584 111.936 72.48 72.16 112.416 168.064 112.384 270.080 0 102.016-39.904 197.92-112.384 270.016-72.48 72.192-168.96 111.968-271.552 111.968zM736 480h-192v192c0 17.664-14.336 32-32 32s-32-14.336-32-32v-192h-192c-17.664 0-32-14.336-32-32s14.336-32 32-32h192v-192c0-17.696 14.336-32 32-32s32 14.304 32 32v192h192c17.696 0 32 14.336 32 32s-14.304 32-32 32z" />
<glyph unicode="&#xe94c;" glyph-name="roundaddfill" d="M828.704 763.424c-84.608 84.192-197.056 130.56-316.704 130.56s-232.128-46.368-316.736-130.56c-84.64-84.224-131.264-196.256-131.264-315.424 0-119.2 46.624-231.2 131.232-315.424 84.608-84.192 197.088-130.56 316.736-130.56s232.128 46.368 316.704 130.56c84.672 84.256 131.296 196.288 131.264 315.456 0.032 119.168-46.56 231.168-131.232 315.392zM736 416h-192v-192c0-17.696-14.336-32-32-32s-32 14.304-32 32v192h-192c-17.664 0-32 14.336-32 32s14.336 32 32 32h192v192c0 17.664 14.336 32 32 32s32-14.336 32-32v-192h192c17.696 0 32-14.336 32-32s-14.304-32-32-32z" />
<glyph unicode="&#xe94d;" glyph-name="roundcheck" d="M512 0c-247.040 0-448 200.96-448 448s200.96 448 448 448 448-200.96 448-448-200.96-448-448-448zM512 831.712c-211.584 0-383.712-172.128-383.712-383.712 0-211.552 172.128-383.712 383.712-383.712 211.552 0 383.712 172.16 383.712 383.712 0 211.584-172.16 383.712-383.712 383.712zM726.976 566.816c-12.544 12.448-32.832 12.32-45.248-0.256l-233.28-235.84-103.264 106.112c-12.352 12.704-32.608 12.928-45.248 0.64-12.672-12.32-12.96-32.608-0.64-45.248l126.016-129.504c0.064-0.096 0.192-0.096 0.256-0.192 0.064-0.064 0.096-0.192 0.16-0.256 2.016-1.984 4.512-3.2 6.88-4.544 1.248-0.672 2.24-1.792 3.52-2.304 3.872-1.6 8-2.4 12.096-2.4 4.064 0 8.128 0.8 11.968 2.336 1.248 0.512 2.208 1.536 3.392 2.176 2.4 1.344 4.896 2.528 6.944 4.544 0.064 0.064 0.096 0.192 0.192 0.256 0.064 0.096 0.16 0.128 0.256 0.192l256.224 259.008c12.448 12.608 12.32 32.864-0.224 45.28z" />
<glyph unicode="&#xe94e;" glyph-name="roundcheckfill" d="M512 894.016c-245.92 0-446.016-200.096-446.016-446.016 0-245.952 200.064-446.016 446.016-446.016s446.016 200.064 446.016 446.016c0 245.92-200.064 446.016-446.016 446.016zM727.232 521.568l-256.224-259.008c-0.064-0.064-0.192-0.096-0.256-0.192-0.096-0.064-0.096-0.192-0.192-0.256-2.048-1.984-4.576-3.2-6.944-4.544-1.184-0.672-2.144-1.696-3.392-2.176-3.84-1.536-7.904-2.336-11.968-2.336-4.096 0-8.224 0.8-12.096 2.4-1.28 0.544-2.304 1.632-3.52 2.304-2.368 1.344-4.832 2.528-6.88 4.544-0.064 0.064-0.096 0.192-0.16 0.256-0.064 0.096-0.192 0.096-0.256 0.192l-126.016 129.504c-12.32 12.672-12.032 32.928 0.64 45.248 12.672 12.288 32.896 12.064 45.248-0.64l103.264-106.112 233.28 235.84c12.416 12.576 32.704 12.704 45.248 0.256 12.512-12.448 12.64-32.704 0.224-45.28z" />
<glyph unicode="&#xe94f;" glyph-name="roundclose" d="M512 0c-247.040 0-448 200.96-448 448s200.96 448 448 448 448-200.96 448-448-200.96-448-448-448zM512 831.712c-211.584 0-383.712-172.128-383.712-383.712 0-211.552 172.128-383.712 383.712-383.712 211.552 0 383.712 172.16 383.712 383.712 0 211.584-172.16 383.712-383.712 383.712zM557.056 446.624l138.368 136.864c12.576 12.416 12.672 32.672 0.256 45.248s-32.704 12.672-45.248 0.256l-138.56-137.024-136.448 136.864c-12.512 12.512-32.736 12.576-45.248 0.064-12.512-12.48-12.544-32.736-0.064-45.248l136.256-136.672-137.376-135.904c-12.576-12.448-12.672-32.672-0.256-45.248 6.272-6.336 14.496-9.504 22.752-9.504 8.128 0 16.256 3.104 22.496 9.248l137.568 136.064 138.688-139.136c6.24-6.272 14.432-9.408 22.656-9.408 8.192 0 16.352 3.136 22.592 9.344 12.512 12.48 12.544 32.704 0.064 45.248l-138.496 138.944z" />
<glyph unicode="&#xe950;" glyph-name="roundclosefill" d="M512 896c-247.008 0-448-200.96-448-448s200.96-448 448-448c247.008 0 448 200.96 448 448s-200.96 448-448 448zM694.752 310.016c12.48-12.544 12.448-32.768-0.064-45.248-6.24-6.208-14.4-9.344-22.592-9.344-8.224 0-16.416 3.136-22.656 9.408l-137.6 138.016-138.048-136.576c-6.24-6.144-14.368-9.248-22.496-9.248-8.256 0-16.48 3.168-22.752 9.504-12.416 12.576-12.32 32.8 0.256 45.248l137.888 136.384-137.376 137.824c-12.48 12.512-12.448 32.768 0.064 45.248 12.512 12.512 32.736 12.448 45.248-0.064l137.568-137.984 138.048 136.576c12.544 12.448 32.832 12.32 45.248-0.256 12.448-12.576 12.32-32.832-0.256-45.248l-137.888-136.384 137.408-137.856z" />
<glyph unicode="&#xe951;" glyph-name="rounddown" d="M512 0c-247.040 0-448 200.96-448 448s200.96 448 448 448 448-200.96 448-448-200.96-448-448-448zM512 832c-211.744 0-384-172.256-384-384s172.256-384 384-384c211.744 0 384 172.256 384 384s-172.256 384-384 384zM695.68 504.288c-12.672 12.416-32.896 12.224-45.248-0.384l-136.672-139.040-135.68 137.184c-12.416 12.576-32.672 12.672-45.248 0.256s-12.672-32.672-0.256-45.248l158.496-160.256c6.24-6.336 14.496-9.504 22.752-9.504 4.128 0 8.256 0.832 12.128 2.432 0.992 0.416 1.76 1.28 2.688 1.792 2.656 1.44 5.376 2.784 7.648 5.024 0.064 0.064 0.064 0.16 0.16 0.224 0.064 0.064 0.16 0.096 0.224 0.16l159.36 162.112c12.448 12.608 12.256 32.864-0.352 45.248z" />
<glyph unicode="&#xe952;" glyph-name="roundright" d="M512 0c-247.040 0-448 200.96-448 448s200.96 448 448 448 448-200.96 448-448-200.96-448-448-448zM512 832c-211.744 0-384-172.256-384-384s172.256-384 384-384c211.744 0 384 172.256 384 384s-172.256 384-384 384zM668.832 458.848c-0.032 0.128-0.192 0.256-0.256 0.384-1.536 3.616-3.648 7.072-6.592 10.048-0.032 0.032-0.064 0.032-0.096 0.064s-0.032 0.064-0.064 0.096l-158.912 159.36c-12.48 12.512-32.736 12.576-45.248 0.064-12.512-12.48-12.544-32.736-0.064-45.248l136.288-136.672-137.408-135.904c-12.576-12.448-12.672-32.672-0.256-45.248 6.24-6.336 14.496-9.504 22.752-9.504 8.128 0 16.256 3.104 22.496 9.248l160.256 158.496c9.504 9.376 11.872 23.2 7.104 34.816z" />
<glyph unicode="&#xe953;" glyph-name="roundrightfill" d="M512 896c-247.040 0-448-200.96-448-448s200.96-448 448-448 448 200.96 448 448-200.96 448-448 448zM661.76 424.032l-160.256-158.496c-6.24-6.144-14.368-9.248-22.496-9.248-8.256 0-16.512 3.168-22.752 9.504-12.416 12.576-12.32 32.8 0.256 45.248l137.408 135.904-136.288 136.672c-12.48 12.512-12.448 32.768 0.064 45.248 12.512 12.512 32.768 12.448 45.248-0.064l158.912-159.36c0.032-0.032 0.032-0.064 0.064-0.096s0.064-0.032 0.096-0.064c2.944-2.976 5.056-6.432 6.592-10.048 0.064-0.128 0.224-0.256 0.256-0.384 4.736-11.616 2.368-25.44-7.104-34.816z" />
<glyph unicode="&#xe954;" glyph-name="search" d="M1015.050-54.8c-11.969-11.934-31.305-11.934-43.242 0l-229.499 229.44c-78.73-68.729-181.484-110.659-294.207-110.659-247.497 0-448.102 200.511-448.102 447.902 0 247.34 200.605 447.867 448.102 447.867 247.469 0 448.104-200.527 448.104-447.867 0-112.676-41.93-215.336-110.659-294.066l229.503-229.374c11.933-11.938 11.933-31.243 0-43.243zM448.102 895.766c-212.133 0-384.086-171.859-384.086-383.883s171.953-383.917 384.086-383.917c98.195 0 187.484 37.147 255.402 97.757-0.125 7.965 2.75 15.965 8.875 21.992 6.059 6.094 14.059 9 22.055 8.906 60.609 67.855 97.757 157.145 97.757 255.262-0.001 212.023-171.957 383.883-384.089 383.883z" />
<glyph unicode="&#xe955;" glyph-name="shopping" d="M511.341 343.571c147.067 0 266.754 119.857 266.754 267.129 0 13.357-10.883 24.171-24.201 24.171-13.346 0-24.144-10.814-24.144-24.171 0-120.643-98.035-218.729-218.41-218.729-120.403 0-218.324 98.085-218.324 218.729 0 13.357-10.883 24.171-24.144 24.171-13.346 0-24.229-10.814-24.229-24.171 0.001-147.271 119.689-267.129 266.698-267.129zM1011.599 794.271l-60.087 59.5 64.211 65.028c6.846 6.943 8.879 17.386 5.099 26.357-3.782 9.044-12.546 14.844-22.283 14.844l-974.338-0.957c-9.824 0-18.674-5.986-22.368-15.043-3.695-9.043-1.575-19.5 5.355-26.357l63.982-63.172-64.067-64.157c-4.124-4.2-5.9-9.671-6.329-15.3-0.086-0.685-0.774-1.128-0.774-1.828v-812.929c0-13.371 10.854-24.257 24.201-24.257h974.338c13.346 0 24.201 10.886 24.201 24.257v809.943c0.2 1.128 1.26 1.843 1.26 2.985 0 9.058-5.012 16.958-12.401 21.086zM122.408 871.786l-39.409 38.914 857.515 0.886-40.354-40.943c-4.554-4.672-7.017-10.829-7.017-17.229 0-6.414 2.635-12.571 7.188-17.057l39.408-38.928h-857.17l39.925 40c4.554 4.643 7.103 10.714 7.103 17.214 0 6.414-2.635 12.643-7.189 17.143zM974.396-15.571h-926.051v114.228h926.051v-114.228zM974.396 146.972h-926.051v602.028h926.051v-602.028z" />
<glyph unicode="&#xe956;" glyph-name="sign" d="M1021.558 777.597c-14.564-70.613-92.081-124.234-162.434-160.244 6.998-3.796 12.376-8.092 16.375-12.031 28.726-28.25 30.511-77.409 4.664-128.316-43.244-85.061-154.746-161.292-313.062-156.245 0.952-28.346-18.517-64.902-55.942-101.864-74.446-73.446-188.565-118.547-273.412-54.882-0.214-0.238-0.285-0.523-0.5-0.762l-199.655-196.347c-8.591-8.449-22.539-8.449-31.13 0-8.615 8.448-8.615 22.157 0 30.605l199.68 196.372c0.619 0.643 1.452 0.881 2.142 1.429-49.409 91.677 91.986 306.065 261.702 472.997 181.105 178.082 417.174 324.462 498.070 244.912 44.958-44.22 62.95-89.856 53.502-135.624zM936.901 882.602c-38.983 38.341-223.622-36.271-435.785-244.912-212.151-208.665-288.12-390.209-249.136-428.526l-15.231-14.946 15.279 14.898c74.351-72.638 181.616-5.379 227.931 40.364 40.673 40.103 46.052 69.233 42.221 72.994-0.31 0.333-2.333 2.023-8.616 2.903-12.019 1.714-20.396 12.638-18.683 24.49s12.876 20.087 24.895 18.397c0.047-0.024 0.096-0.024 0.143-0.024 164.896-23.109 279.969 47.695 320.833 128.126 16.637 32.653 18.088 64.14 3.618 78.349-14.971 14.732-47.862 13.459-90.178-3.511l-4.212-1.689c-7.236-3.059-15.304-1.975-21.373 2.178 0 0.024 0 0.024 0 0-2.571 1.796-4.761 4.082-6.402 6.854-0.452 0.738-0.833 1.535-1.189 2.344-2.262 5.201-2.309 10.805-0.548 15.732 0 0 0 0.024 0.024 0.024h-0.024l0.024 0.012c0 0 0 0.012 0.022 0.012l-0.022 0.036h0.022c0 0.012 0 0.012 0 0.012v0.036c0 0 0 0.012 0.024 0.012 0 0 0 0.011 0 0.023 0 0 0 0.024 0.024 0.024v0c0 0-0.049-0.047 0 0.036v0c0 0 0 0.024 0 0.047v0h0.023c0 0.036 0 0.048 0 0.048v0c0 0 0.023 0.012 0.023 0.024 0 0-0.071-0.072 0 0.036h0.023c0 0 0 0.012 0 0.024v0.023l0.024 0.012c1.999 5.295 6.141 9.77 11.853 12.161l4.95 2.059c0.047 0 0.047 0 0.047 0.012v0.012l8.235 3.261c53.145 21.182 214.912 85.596 232.69 171.62 6.404 31.106-7.16 62.642-41.529 96.413z" />
<glyph unicode="&#xe957;" glyph-name="signed" d="M958.143 480.064v223.929c0 70.693-57.057 128.007-127.471 128.007h-95.586v64h-85.857c-27.586 38.086-78.415 64-137.229 64-58.843 0-109.643-25.914-137.257-64h-85.829v-64h-95.6c-70.429 0-127.486-57.314-127.486-128.007v-639.993c0-70.686 57.057-128 127.486-128h637.357c70.414 0 127.471 57.314 127.471 128v415.9c0 0.029 0.029 0.057 0.029 0.086s-0.028 0.050-0.028 0.078zM352.643 832h70.814c0 35.343 39.657 64 88.543 64s88.529-28.657 88.529-64h70.828v-64.007h-318.714v64.007zM894.414 64c0-35.343-28.528-64-63.742-64h-637.358c-35.229 0-63.743 28.657-63.743 64v639.993c0 35.343 28.515 63.993 63.743 63.993h95.6v-63.993h446.172v63.993h31.828c0.029 0 0.029-0.007 0.029-0.007 0.027 0 0.027 0.007 0.043 0.007h63.686c35.214 0 63.742-28.65 63.742-63.993v-639.993zM674.986 515.679c-5.372 5.464-14.072 5.464-19.43 0l-174.727-177.894-83.129 85.244c-5.357 5.457-14.057 5.457-19.415 0l-29.143-29.672c-5.372-5.472-5.372-14.328 0-19.786l92.614-94.985c0.071-0.072 0.042-0.186 0.1-0.258l20.243-20.6 4.571-4.699 0.014 0.027 4.314-4.399c5.372-5.457 14.057-5.457 19.429 0l213.686 217.571c5.372 5.464 5.372 14.314 0 19.786l-29.127 29.665z" />
<glyph unicode="&#xe958;" glyph-name="square" d="M832 32h-640c-52.928 0-96 43.072-96 96v640c0 52.928 43.072 96 96 96h640c52.928 0 96-43.072 96-96v-640c0-52.928-43.072-96-96-96zM192 800c-17.632 0-32-14.368-32-32v-640c0-17.664 14.368-32 32-32h640c17.664 0 32 14.336 32 32v640c0 17.632-14.336 32-32 32h-640z" />
<glyph unicode="&#xe959;" glyph-name="squarecheck" d="M726.976 566.816c-12.544 12.448-32.832 12.32-45.248-0.256l-233.28-235.808-103.264 106.112c-12.352 12.704-32.608 12.928-45.248 0.64-12.672-12.32-12.96-32.608-0.64-45.248l126.016-129.504c0.064-0.096 0.192-0.096 0.256-0.192 0.064-0.064 0.096-0.192 0.16-0.256 2.016-1.984 4.512-3.2 6.88-4.544 1.248-0.672 2.24-1.792 3.52-2.304 3.872-1.6 8-2.4 12.096-2.4 4.064 0 8.128 0.8 11.968 2.336 1.248 0.512 2.208 1.536 3.392 2.176 2.4 1.344 4.896 2.528 6.944 4.544 0.064 0.064 0.096 0.192 0.192 0.256 0.064 0.096 0.16 0.128 0.256 0.192l256.224 259.008c12.448 12.544 12.32 32.8-0.224 45.248zM832 32h-640c-52.928 0-96 43.072-96 96v640c0 52.928 43.072 96 96 96h640c52.928 0 96-43.072 96-96v-640c0-52.928-43.072-96-96-96zM192 800c-17.632 0-32-14.368-32-32v-640c0-17.664 14.368-32 32-32h640c17.664 0 32 14.336 32 32v640c0 17.632-14.336 32-32 32h-640z" />
<glyph unicode="&#xe95a;" glyph-name="squarecheckfill" d="M832 864h-640c-52.928 0-96-43.072-96-96v-640c0-52.928 43.072-96 96-96h640c52.928 0 96 43.072 96 96v640c0 52.928-43.072 96-96 96zM727.232 521.568l-256.224-259.008c-0.064-0.064-0.192-0.096-0.256-0.192-0.096-0.064-0.096-0.192-0.192-0.256-2.048-1.984-4.576-3.2-6.944-4.544-1.184-0.672-2.144-1.696-3.392-2.176-3.84-1.536-7.904-2.336-11.968-2.336-4.096 0-8.224 0.8-12.096 2.4-1.28 0.544-2.304 1.632-3.52 2.304-2.368 1.344-4.832 2.528-6.88 4.544-0.064 0.064-0.096 0.192-0.16 0.256-0.064 0.096-0.192 0.096-0.256 0.192l-126.016 129.504c-12.32 12.672-12.032 32.928 0.64 45.248 12.672 12.288 32.896 12.064 45.248-0.64l103.264-106.112 233.28 235.808c12.416 12.576 32.704 12.672 45.248 0.256 12.512-12.448 12.64-32.704 0.224-45.248z" />
<glyph unicode="&#xe95b;" glyph-name="store" d="M1023.613 572.316c0.068 0.728 0.205 1.341 0.205 2.069l-61.699 370.289c-1.409 8.868-9.204 15.326-18.066 15.326h-863.947c-9.010 0-16.669-6.458-18.157-15.326l-61.949-373.29c0-48.503 24.486-91.253 61.756-116.857v-500.176c0-10.142 8.136-18.351 18.351-18.351h863.946c10.135 0 18.339 8.209 18.339 18.351v500.448c35.929 25.082 59.745 66.763 61.018 115.13 0 0.591 0.591 0.864 0.591 1.455-0.001 0.341-0.319 0.614-0.388 0.932zM777.227 923.253h151.146l55.882-333.519h-207.028v333.519zM530.385 923.253h210.095v-333.519h-210.095v333.519zM738.616 553.056c-8.749-49.231-51.495-86.706-103.195-86.706-51.473 0-94.31 37.543-103.036 86.706h206.231zM283.463 923.253h210.163v-333.519h-210.163v333.519zM491.763 553.056c-8.749-49.231-51.552-86.706-103.184-86.706s-94.458 37.475-103.252 86.706h206.436zM95.583 923.253h151.191v-333.519h-206.687l55.496 333.519zM88.708 481.154c-26.543 15.486-45.484 41.682-50.496 71.902h206.698c-8.727-49.231-51.552-86.706-103.104-86.706-8.738 0-17.203 1.319-25.611 3.525-1.011 0.272-1.932 0.614-2.943 0.864-8.125 2.479-16.215 5.685-23.941 10.188-0.137 0.181-0.467 0.091-0.603 0.227zM802.225-27.299h-210.163v333.45h210.163v-333.45zM925.713-27.299h-86.719v351.847c0 10.142-8.272 18.351-18.408 18.351h-246.842c-10.135 0-18.407-8.209-18.407-18.351v-351.847h-456.835v463.975c1-0.341 2.011-0.228 3.011-0.546 12.806-3.797 26.146-6.526 40.292-6.526 52.813 0 98.98 29.061 123.307 72.016 24.43-42.955 70.653-72.016 123.466-72.016 52.825 0 99.048 29.061 123.387 72.084 24.418-43.023 70.642-72.084 123.455-72.084 52.836 0 99.060 29.061 123.466 72.016 24.407-42.955 70.563-72.016 123.467-72.016 14.066 0 27.406 2.729 40.201 6.595 1 0.341 2.067 0.137 3.158 0.478v-463.976zM934.895 481.018h-0.182c-7.682-4.525-15.612-7.731-23.748-10.142-1.068-0.341-2.068-0.728-3.137-1-8.408-2.206-16.885-3.525-25.475-3.525-51.7 0-94.446 37.475-103.264 86.706h206.3c-5.453-30.836-24.407-56.759-50.494-72.039zM450.415 342.898h-246.865c-10.192 0-18.396-8.209-18.396-18.351v-246.813c0-10.164 8.204-18.351 18.396-18.351h246.864c10.135 0 18.408 8.187 18.408 18.351v246.814c0 10.141-8.272 18.35-18.407 18.35zM432.064 96.131h-210.163v210.020h210.163v-210.020z" />
<glyph unicode="&#xe95c;" glyph-name="supermarket" d="M599.415 10.927h-474.537v399.609h-49.951v-449.561h874.146v449.561h-49.951v-399.609h-74.927zM949.073 935.024h-874.146l-74.927-149.853v-224.78h0.694c6.212-56.195 53.845-99.902 111.696-99.902 45.449 0 84.592 26.977 102.3 65.791 19.396-37.437 55.796-65.791 97.504-65.791 43.498 0 81.219 24.71 99.901 60.857 18.684-36.146 56.405-60.857 99.903-60.857s81.22 24.71 99.902 60.857c18.684-36.146 56.403-60.857 99.901-60.857s81.221 24.71 99.902 60.857c18.684-36.146 56.404-60.857 99.902-60.857 57.852 0 105.483 43.708 111.695 99.902h0.7v224.78l-74.927 149.853zM911.61 510.44c-34.487 0-62.438 27.95-62.438 62.438 0 4.278 0.436 8.453 1.255 12.488h-3.396c-3.765 10.638-12.194 19.069-22.833 22.833v2.142h-24.978v-2.142c-10.639-3.764-19.068-12.195-22.833-22.833h-3.397c0.819-4.036 1.256-8.21 1.256-12.488 0-34.487-27.951-62.438-62.439-62.438-34.486 0-62.438 27.95-62.438 62.438 0 4.278 0.436 8.453 1.255 12.488h-3.397c-3.764 10.638-12.194 19.069-22.833 22.833v2.142h-24.976v-2.142c-10.639-3.764-19.069-12.195-22.833-22.833h-3.398c0.82-4.036 1.256-8.21 1.256-12.488 0-34.487-27.95-62.438-62.438-62.438s-62.439 27.95-62.439 62.438c0 4.278 0.437 8.453 1.255 12.488h-3.396c-3.764 10.638-12.195 19.069-22.833 22.833v2.142h-24.976v-2.141c-10.644-3.763-19.072-12.195-22.836-22.835h-3.396c0.819-4.036 1.255-8.21 1.255-12.488 0-34.487-27.951-62.438-62.438-62.438-34.488 0-62.439 27.95-62.439 62.438 0 4.278 0.436 8.453 1.255 12.488h-3.397c-3.764 10.638-12.195 19.069-22.833 22.833v2.142h-24.976v-2.141c-10.643-3.763-19.072-12.195-22.835-22.835h-3.396c0.819-4.036 1.255-8.21 1.255-12.488 0-34.487-27.951-62.438-62.438-62.438s-62.439 27.95-62.439 62.438c0 4.278 0.436 8.453 1.255 12.488h-1.255v194.905l49.944 104.804h824.195l49.951-99.902v-199.805h-1.255c0.82-4.036 1.256-8.21 1.256-12.488 0-34.487-27.951-62.438-62.439-62.438zM199.585 160.562h225v225h-225v-225zM249.585 335.562h125v-125h-125v125zM565.588 385.562v-388.63h50v338.63h168.98v-338.63h50.006v388.63z" />
</font>
</defs>
</svg>
